<svg width="16" height="16" viewBox="0 0 16 16" fill="none" xmlns="http://www.w3.org/2000/svg">
<g id="Iconly/Broken/Lock">
<g id="Lock">
<path id="Lock_2" fill-rule="evenodd" clip-rule="evenodd" d="M8.00657 2.3335H7.99505C6.57821 2.3335 5.42428 3.46283 5.4175 4.85616V5.7515H10.5814V4.8675C10.5814 3.47016 9.42611 2.3335 8.00657 2.3335ZM11.5979 4.8675V5.93216C12.7979 6.34616 13.6666 7.45883 13.6666 8.7795V11.6388C13.6666 13.3088 12.2857 14.6668 10.5883 14.6668H10.5687H8.29467C8.01415 14.6668 7.78648 14.4428 7.78648 14.1668C7.78648 13.8908 8.01415 13.6668 8.29467 13.6668H10.5687C11.7056 13.6668 12.6299 12.7575 12.6299 11.6388C12.6299 11.6144 12.6362 11.5924 12.6426 11.5703C12.6453 11.561 12.648 11.5517 12.6502 11.5422V8.7795C12.6502 7.66083 11.7253 6.7515 10.5883 6.7515H5.41153C4.27454 6.7515 3.34963 7.66083 3.34963 8.7795V11.5422C3.3518 11.5524 3.35459 11.5624 3.35738 11.5724C3.36332 11.5938 3.36928 11.6152 3.36928 11.6388C3.36928 12.7575 4.29419 13.6668 5.43118 13.6668C5.7117 13.6668 5.93937 13.8908 5.93937 14.1668C5.93937 14.4428 5.7117 14.6668 5.43118 14.6668C5.42881 14.6668 5.42661 14.6665 5.42441 14.6662C5.42221 14.6658 5.42 14.6655 5.41763 14.6655C5.41662 14.6655 5.4156 14.6658 5.41458 14.6662C5.41357 14.6665 5.41255 14.6668 5.41153 14.6668C3.71418 14.6668 2.33325 13.3088 2.33325 11.6388V8.7795C2.33325 7.45883 3.20124 6.34616 4.40125 5.93216V4.8675C4.41006 2.90883 6.02001 1.3335 7.99314 1.3335H8.00873C9.98661 1.3335 11.5979 2.91883 11.5979 4.8675ZM8.50772 9.46869V10.9494C8.50772 11.2254 8.28005 11.4494 7.99953 11.4494C7.71901 11.4494 7.49134 11.2254 7.49134 10.9494V9.46869C7.49134 9.19269 7.71901 8.96869 7.99953 8.96869C8.28005 8.96869 8.50772 9.19269 8.50772 9.46869Z" fill="#BCC7FF"/>
</g>
</g>
</svg>
