<svg width="16" height="16" viewBox="0 0 16 16" fill="none" xmlns="http://www.w3.org/2000/svg">
<g id="Iconly/Broken/Send">
<g id="Send">
<path id="Send_2" fill-rule="evenodd" clip-rule="evenodd" d="M13.0025 1.38503C13.4592 1.25218 13.9539 1.38033 14.2892 1.72185C14.6246 2.0627 14.7486 2.55988 14.6119 3.02016L13.7792 5.82142C13.6999 6.08779 13.4225 6.23876 13.1572 6.15958C12.8925 6.07974 12.7419 5.79928 12.8212 5.53358L13.6539 2.73164C13.7006 2.57464 13.6172 2.46863 13.5792 2.43038C13.5412 2.39147 13.4345 2.30693 13.2805 2.35188L2.55283 5.47118C2.38216 5.52083 2.34483 5.66374 2.33683 5.72279C2.32949 5.78183 2.32683 5.92944 2.47883 6.02338L4.73624 7.41227C4.97158 7.55719 5.04625 7.86718 4.90158 8.1047C4.80758 8.25902 4.64357 8.3449 4.4749 8.3449C4.38623 8.3449 4.29623 8.32142 4.21489 8.2711L1.95748 6.88154C1.51013 6.60644 1.27546 6.11127 1.34546 5.58859C1.41546 5.06525 1.77214 4.64992 2.27549 4.50365L13.0025 1.38503ZM12.0188 8.23298C12.0988 7.96594 12.3769 7.8143 12.6415 7.89482C12.9062 7.97466 13.0569 8.25513 12.9775 8.5215L11.4295 13.7308C11.2795 14.2347 10.8648 14.589 10.3468 14.6554C10.2888 14.6635 10.2314 14.6668 10.1741 14.6668C9.72209 14.6668 9.30874 14.4347 9.06807 14.0361L6.33464 9.50982C6.2153 9.31122 6.2453 9.05625 6.40864 8.89254L10.2894 4.98688C10.4848 4.79028 10.8008 4.79028 10.9961 4.98688C11.1915 5.18347 11.1915 5.50217 10.9961 5.69876L7.39334 9.32531L9.92276 13.5134C10.0148 13.6658 10.1594 13.6644 10.2194 13.6577C10.2781 13.6497 10.4201 13.6134 10.4708 13.443L12.0188 8.23298Z" fill="#BCC7FF"/>
</g>
</g>
</svg>
