<svg width="16" height="16" viewBox="0 0 16 16" fill="none" xmlns="http://www.w3.org/2000/svg">
<g id="Iconly/Broken/Star">
<g id="Star">
<path id="Star_2" d="M11.6653 14.6131C11.5833 14.6151 11.502 14.5944 11.4307 14.5531L8.00533 12.7491L4.98933 14.3731C4.49733 14.6397 3.88133 14.4571 3.61466 13.9644C3.61133 13.9584 3.608 13.9524 3.60466 13.9457C3.5 13.7397 3.46333 13.5071 3.49933 13.2791L4.086 9.81641L1.634 7.33375C1.23333 6.92041 1.23333 6.26308 1.634 5.84908C1.79 5.68508 1.99666 5.57908 2.22066 5.54841L5.58266 5.03775L7.078 1.92241C7.31066 1.41575 7.91 1.19308 8.41733 1.42575C8.63733 1.52641 8.81333 1.70308 8.914 1.92241L10.416 5.04841L13.7893 5.56508C14.062 5.60575 14.3067 5.75641 14.4667 5.98108C14.7653 6.41041 14.72 6.99041 14.3587 7.36841L11.918 9.82175L12.258 11.6877C12.3053 11.9677 12.1207 12.2351 11.8413 12.2877C11.5667 12.3371 11.304 12.1544 11.2547 11.8791L10.9087 10.0131C10.8507 9.67108 10.9593 9.32175 11.202 9.07441L13.6487 6.60375L10.2753 6.08041C9.93333 6.02508 9.64333 5.79841 9.50666 5.48041L8.00533 2.36775L6.48533 5.52975C6.34866 5.84841 6.05866 6.07441 5.71666 6.12975L2.35466 6.64041L4.78333 9.10708C5.02533 9.35041 5.134 9.69508 5.07666 10.0331L4.49 13.4957L7.50533 11.8784C7.804 11.7104 8.16866 11.7104 8.46733 11.8784L11.888 13.6824C12.0967 13.7964 12.2027 14.0371 12.146 14.2684C12.094 14.4997 11.89 14.6644 11.6533 14.6684L11.6653 14.6131Z" fill="#BCC7FF"/>
</g>
</g>
</svg>
