<svg width="93" height="72" viewBox="0 0 93 72" fill="none" xmlns="http://www.w3.org/2000/svg">
<path d="M36 72C55.8822 72 72 55.8822 72 36C72 16.1177 55.8822 0 36 0C16.1177 0 0 16.1177 0 36C0 55.8822 16.1177 72 36 72Z" fill="#BCC7FF"/>
<path d="M36 48C38.7614 48 41 45.9853 41 43.5C41 41.0147 38.7614 39 36 39C33.2386 39 31 41.0147 31 43.5C31 45.9853 33.2386 48 36 48Z" fill="#273A69"/>
<path d="M36 46C37.6569 46 39 44.8807 39 43.5C39 42.1193 37.6569 41 36 41C34.3431 41 33 42.1193 33 43.5C33 44.8807 34.3431 46 36 46Z" fill="#BCC7FF"/>
<path d="M45.7313 54H26.2689C24.3418 53.998 22.4942 53.2793 21.1315 52.0015C19.7688 50.7237 19.0022 48.9912 19 47.184V38.8163C19.0022 37.0091 19.7687 35.2766 21.1314 33.9987C22.4941 32.7209 24.3418 32.0021 26.2689 32H45.7313C47.6584 32.0021 49.506 32.7209 50.8686 33.9988C52.2313 35.2766 52.9978 37.0092 53 38.8163V47.184C52.9978 48.9911 52.2313 50.7236 50.8686 52.0014C49.5059 53.2792 47.6584 53.998 45.7313 54ZM26.2689 32.7137C24.5435 32.7155 22.8894 33.3591 21.6694 34.5031C20.4493 35.6472 19.7631 37.1984 19.7611 38.8163V47.184C19.7631 48.802 20.4493 50.353 21.6694 51.4971C22.8894 52.6411 24.5436 53.2845 26.2689 53.2863H45.7312C47.4566 53.2845 49.1107 52.6411 50.3307 51.4971C51.5507 50.353 52.237 48.8019 52.2389 47.184V38.8163C52.237 37.1984 51.5507 35.6472 50.3307 34.5032C49.1107 33.3591 47.4566 32.7155 45.7312 32.7137L26.2689 32.7137Z" fill="white"/>
<path d="M25.0494 49.9419H42.0521C42.9346 49.9419 43.8085 49.7629 44.6239 49.4152C45.4392 49.0675 46.1801 48.5578 46.8041 47.9153C47.4281 47.2727 47.9232 46.5099 48.2609 45.6704C48.5986 44.8309 48.7724 43.9311 48.7724 43.0225V35.4548C48.7711 34.6155 48.6209 33.7836 48.3291 33C49.1586 33.6431 49.8317 34.4758 50.2952 35.4325C50.7587 36.3892 51 37.4437 51 38.5128V46.0805C51 46.9892 50.8262 47.889 50.4885 48.7285C50.1507 49.568 49.6557 50.3308 49.0317 50.9733C48.4076 51.6159 47.6668 52.1256 46.8514 52.4733C46.0361 52.821 45.1622 53 44.2797 53H27.277C25.9144 52.9992 24.5842 52.5717 23.4631 51.7743C22.342 50.9769 21.4829 49.8472 21 48.5353C22.1639 49.448 23.5865 49.9421 25.0494 49.9419Z" fill="#273A69"/>
<path d="M36.709 17C33.0447 17 29.8237 18.557 28 20.8941C29.9496 19.5623 32.3034 18.8535 34.7146 18.8719C40.389 18.8719 45.0056 22.6026 45.0056 27.1883V31H47V25.3163C47 20.7307 42.3835 17 36.709 17Z" fill="#273A69"/>
<path d="M47 32H25V25.5044C25 20.2637 29.9346 16 36 16C42.0654 16 47 20.2637 47 25.5044V32ZM25.7106 31.2869H46.2894V25.5044C46.2894 20.6568 41.6737 16.7131 36 16.7131C30.3263 16.7131 25.7106 20.6568 25.7106 25.5044V31.2869Z" fill="white"/>
<path d="M41.973 30H30.027C29.4896 29.9994 28.9743 29.7794 28.5943 29.3884C28.2143 28.9974 28.0006 28.4672 28 27.9143V25.1045C28 21.187 31.5888 18 36 18C40.4112 18 44 21.1871 44 25.1045V27.9143C43.9994 28.4672 43.7857 28.9974 43.4057 29.3884C43.0257 29.7794 42.5104 29.9994 41.973 30ZM36 18.7751C32.0041 18.7751 28.7533 21.6143 28.7533 25.1045V27.9143C28.7537 28.2617 28.888 28.5949 29.1267 28.8406C29.3655 29.0863 29.6893 29.2245 30.027 29.2249H41.973C42.3107 29.2245 42.6345 29.0863 42.8733 28.8406C43.112 28.5949 43.2463 28.2617 43.2467 27.9143V25.1045C43.2467 21.6143 39.9959 18.7751 36 18.7751Z" fill="white"/>
<path fill-rule="evenodd" clip-rule="evenodd" d="M82.1972 25.9535C84.2876 25.7816 86.4288 25.8801 88.5034 25.9895C88.9501 26.0144 89.3096 26.3611 89.2743 26.7572C89.2703 27.159 88.8962 27.4633 88.4809 27.4437C86.4703 27.336 84.3946 27.2337 82.4014 27.4024C81.9763 27.4403 81.5755 27.1451 81.5149 26.7444C81.4543 26.344 81.772 25.9916 82.1972 25.9535Z" fill="#FFB9AA"/>
<path fill-rule="evenodd" clip-rule="evenodd" d="M77.3649 17.6455C81.0999 15.192 85.176 13.1944 88.8622 10.6497C89.1929 10.4098 89.6963 10.4796 89.9635 10.8018C90.2306 11.1242 90.1847 11.582 89.8227 11.8166C86.135 14.3701 82.0574 16.3763 78.3209 18.8386C77.96 19.0664 77.4587 18.9851 77.1928 18.6553C76.9582 18.3311 77.004 17.8732 77.3649 17.6455Z" fill="#FFB9AA"/>
<path fill-rule="evenodd" clip-rule="evenodd" d="M73.2911 5.06747C72.9045 6.77001 72.518 8.47257 72.1314 10.1754C72.0643 10.569 71.6368 10.809 71.2019 10.7152C70.767 10.6211 70.5113 10.2328 70.5784 9.83884C70.9656 8.13345 71.3525 6.42831 71.7395 4.7232C71.8379 4.3349 72.2649 4.09694 72.6995 4.193C73.1027 4.28374 73.3895 4.67945 73.2911 5.06747Z" fill="#FFB9AA"/>
</svg>
