<svg width="390" height="284" viewBox="0 0 390 284" fill="none" xmlns="http://www.w3.org/2000/svg">
<path d="M13.0898 143.988C13.9935 143.988 14.726 143.256 14.726 142.352C14.726 141.448 13.9935 140.716 13.0898 140.716C12.1861 140.716 11.4536 141.448 11.4536 142.352C11.4536 143.256 12.1861 143.988 13.0898 143.988Z" fill="white"/>
<path d="M116.273 61.4625H107.177C106.909 61.4625 106.652 61.356 106.462 61.1665C106.273 60.977 106.166 60.7199 106.166 60.4519C106.166 60.1839 106.273 59.9268 106.462 59.7373C106.652 59.5478 106.909 59.4413 107.177 59.4413H116.273C116.54 59.4419 116.797 59.5486 116.986 59.7381C117.175 59.9276 117.281 60.1843 117.281 60.4519C117.281 60.7195 117.175 60.9762 116.986 61.1657C116.797 61.3551 116.54 61.4619 116.273 61.4625Z" fill="white"/>
<path d="M122.589 61.2099C122.868 61.2099 123.094 60.9837 123.094 60.7046C123.094 60.4256 122.868 60.1993 122.589 60.1993C122.31 60.1993 122.084 60.4256 122.084 60.7046C122.084 60.9837 122.31 61.2099 122.589 61.2099Z" fill="white"/>
<path d="M111.881 154.305C111.775 155.218 111.689 156.136 111.623 157.059C111.483 158.876 111.413 160.706 111.413 162.551C111.423 179.73 117.61 196.446 129.053 210.215C140.496 223.984 156.583 234.07 174.923 238.972V86.1162C158.081 90.6109 143.101 99.4884 131.88 111.626C120.658 123.764 113.698 138.616 111.881 154.305Z" fill="#273A69"/>
<path d="M68.9336 109.441C69.7893 109.441 70.483 108.747 70.483 107.892C70.483 107.036 69.7893 106.342 68.9336 106.342C68.0779 106.342 67.3842 107.036 67.3842 107.892C67.3842 108.747 68.0779 109.441 68.9336 109.441Z" fill="#CCCCCC"/>
<path d="M65.6312 171.596C67.3217 171.596 68.6921 170.225 68.6921 168.535C68.6921 166.845 67.3217 165.474 65.6312 165.474C63.9408 165.474 62.5704 166.845 62.5704 168.535C62.5704 170.225 63.9408 171.596 65.6312 171.596Z" fill="#CCCCCC"/>
<path d="M123.273 90.5888C124.497 90.5888 125.49 89.5963 125.49 88.3719C125.49 87.1476 124.497 86.155 123.273 86.155C122.048 86.155 121.056 87.1476 121.056 88.3719C121.056 89.5963 122.048 90.5888 123.273 90.5888Z" fill="#CCCCCC"/>
<path d="M72.8364 213.535C73.8133 213.535 74.6051 212.743 74.6051 211.767C74.6051 210.79 73.8133 209.998 72.8364 209.998C71.8596 209.998 71.0677 210.79 71.0677 211.767C71.0677 212.743 71.8596 213.535 72.8364 213.535Z" fill="#CCCCCC"/>
<path d="M108.562 238.3C109.62 238.3 110.478 237.442 110.478 236.384C110.478 235.327 109.62 234.469 108.562 234.469C107.504 234.469 106.647 235.327 106.647 236.384C106.647 237.442 107.504 238.3 108.562 238.3Z" fill="#CCCCCC"/>
<path d="M164.243 43.5258H160.463V39.7458H158.435V43.5258H154.654V45.5549H158.435V49.3349H160.463V45.5549H164.243V43.5258Z" fill="#CCCCCC"/>
<path opacity="0.1" d="M136.782 156.527C140.43 156.527 143.387 153.57 143.387 149.922C143.387 146.274 140.43 143.317 136.782 143.317C133.135 143.317 130.178 146.274 130.178 149.922C130.178 153.57 133.135 156.527 136.782 156.527Z" fill="black"/>
<path opacity="0.1" d="M140.085 203.06C143.733 203.06 146.69 200.103 146.69 196.455C146.69 192.808 143.733 189.851 140.085 189.851C136.437 189.851 133.48 192.808 133.48 196.455C133.48 200.103 136.437 203.06 140.085 203.06Z" fill="black"/>
<path d="M118.346 156.429C110.241 150.987 104.204 145.618 100.404 140.471C96.6119 135.336 95.26 130.698 96.3848 126.685C97.5097 122.671 101.076 119.411 106.983 116.996C112.906 114.574 120.853 113.124 130.605 112.687L130.5 110.336C109.617 111.272 96.6965 116.853 94.119 126.05C91.5414 135.246 99.6791 146.729 117.034 158.382C131.186 167.886 150.142 176.662 171.353 183.613V181.136C150.643 174.292 132.163 165.707 118.346 156.429Z" fill="#CCCCCC"/>
<path opacity="0.1" d="M110.946 156.931C109.988 156.287 109.059 155.643 108.157 155.001C108.064 155.901 107.988 156.806 107.929 157.717C108.487 158.106 109.056 158.495 109.635 158.884C123.788 168.387 142.743 177.163 163.954 184.114V181.637C143.244 174.793 124.765 166.208 110.946 156.931Z" fill="black"/>
<path d="M271.266 162.542C271.259 150.709 268.583 139.03 263.437 128.376C258.292 117.723 250.81 108.368 241.549 101.011C232.288 93.6532 221.487 88.4822 209.951 85.8831C198.415 83.2841 186.442 83.3241 174.923 86V239.078C192.242 243.112 210.416 241.148 226.474 233.506C242.532 225.864 255.524 212.997 263.327 197.008C263.732 196.182 264.121 195.347 264.495 194.505C268.974 184.446 271.281 173.554 271.266 162.542Z" fill="#273A69"/>
<path d="M191.18 70.3589C191.678 70.3589 192.081 69.9557 192.081 69.4583C192.081 68.9609 191.678 68.5576 191.18 68.5576C190.683 68.5576 190.28 68.9609 190.28 69.4583C190.28 69.9557 190.683 70.3589 191.18 70.3589Z" fill="#F2F2F2"/>
<path d="M252.124 76.9021C253.251 76.9021 254.164 75.9888 254.164 74.8621C254.164 73.7355 253.251 72.8221 252.124 72.8221C250.997 72.8221 250.084 73.7355 250.084 74.8621C250.084 75.9888 250.997 76.9021 252.124 76.9021Z" fill="#CCCCCC"/>
<path d="M324.476 162.841C326.305 162.841 327.788 161.358 327.788 159.529C327.788 157.699 326.305 156.217 324.476 156.217C322.647 156.217 321.164 157.699 321.164 159.529C321.164 161.358 322.647 162.841 324.476 162.841Z" fill="#CCCCCC"/>
<path d="M298.577 108.049C299.362 108.049 299.998 107.413 299.998 106.628C299.998 105.844 299.362 105.207 298.577 105.207C297.792 105.207 297.156 105.844 297.156 106.628C297.156 107.413 297.792 108.049 298.577 108.049Z" fill="#CCCCCC"/>
<path d="M293.603 154.234C294.388 154.234 295.024 153.598 295.024 152.813C295.024 152.028 294.388 151.392 293.603 151.392C292.818 151.392 292.182 152.028 292.182 152.813C292.182 153.598 292.818 154.234 293.603 154.234Z" fill="#CCCCCC"/>
<path d="M254.684 248.051H252.31V245.677H251.037V248.051H248.664V249.324H251.037V251.698H252.31V249.324H254.684V248.051Z" fill="#CCCCCC"/>
<path d="M309.464 235.902H307.69V234.128H306.737V235.902H304.963V236.855H306.737V238.629H307.69V236.855H309.464V235.902Z" fill="#CCCCCC"/>
<path opacity="0.1" d="M190.28 108.192C193.927 108.192 196.884 105.235 196.884 101.587C196.884 97.9392 193.927 94.9822 190.28 94.9822C186.632 94.9822 183.675 97.9392 183.675 101.587C183.675 105.235 186.632 108.192 190.28 108.192Z" fill="black"/>
<path opacity="0.1" d="M190.28 166.734C193.927 166.734 196.884 163.777 196.884 160.129C196.884 156.481 193.927 153.524 190.28 153.524C186.632 153.524 183.675 156.481 183.675 160.129C183.675 163.777 186.632 166.734 190.28 166.734Z" fill="black"/>
<path opacity="0.1" d="M225.705 131.308C229.353 131.308 232.31 128.351 232.31 124.704C232.31 121.056 229.353 118.099 225.705 118.099C222.057 118.099 219.1 121.056 219.1 124.704C219.1 128.351 222.057 131.308 225.705 131.308Z" fill="black"/>
<path opacity="0.1" d="M247.621 176.041C251.269 176.041 254.226 173.084 254.226 169.436C254.226 165.788 251.269 162.831 247.621 162.831C243.973 162.831 241.016 165.788 241.016 169.436C241.016 173.084 243.973 176.041 247.621 176.041Z" fill="black"/>
<path d="M285.67 166.439C282.569 161.68 277.577 156.711 270.834 151.67L269.425 153.555C282.529 163.351 288.633 172.715 286.613 179.922C285.488 183.936 281.922 187.195 276.015 189.611C270.092 192.033 262.144 193.482 252.392 193.919C250.32 194.012 248.194 194.058 246.014 194.058C226.932 194.058 203.925 190.525 180.402 183.932C177.317 183.067 174.271 182.163 171.262 181.219V183.683C174.064 184.553 176.899 185.392 179.766 186.197C203.495 192.848 226.725 196.411 246.026 196.411C248.235 196.411 250.396 196.364 252.498 196.27C273.381 195.334 286.301 189.754 288.879 180.557C290.075 176.291 288.995 171.541 285.67 166.439Z" fill="#CCCCCC"/>
<path opacity="0.1" d="M252.393 195.801C250.321 195.894 248.195 195.94 246.013 195.94C226.934 195.94 203.924 192.408 180.401 185.814C177.317 184.949 174.27 184.045 171.262 183.101V185.566C174.064 186.436 176.898 187.274 179.766 188.08C203.495 194.73 226.724 198.293 246.025 198.293C248.235 198.293 250.398 198.246 252.499 198.152C255.037 198.039 257.455 197.858 259.751 197.608C260.157 196.781 260.547 195.947 260.921 195.104C258.253 195.432 255.41 195.664 252.393 195.801Z" fill="black"/>
<path d="M225.679 105.761C230.435 105.761 234.29 101.906 234.29 97.1497C234.29 92.3936 230.435 88.5381 225.679 88.5381C220.923 88.5381 217.067 92.3936 217.067 97.1497C217.067 101.906 220.923 105.761 225.679 105.761Z" fill="white"/>
<path d="M225.705 84.4746C222.441 84.4746 219.31 85.7714 217.001 88.0798C214.693 90.3881 213.396 93.519 213.396 96.7835C213.396 103.581 225.705 125.904 225.705 125.904C225.705 125.904 238.014 103.581 238.014 96.7835C238.014 93.519 236.717 90.3881 234.409 88.0798C232.1 85.7714 228.97 84.4746 225.705 84.4746ZM225.705 102.788C224.577 102.788 223.474 102.453 222.536 101.826C221.598 101.2 220.867 100.309 220.435 99.2665C220.003 98.2243 219.89 97.0774 220.111 95.9709C220.331 94.8644 220.874 93.848 221.672 93.0503C222.469 92.2525 223.486 91.7093 224.592 91.4892C225.699 91.2691 226.846 91.382 227.888 91.8138C228.93 92.2455 229.821 92.9766 230.448 93.9146C231.075 94.8527 231.409 95.9555 231.409 97.0837C231.409 98.5965 230.808 100.047 229.738 101.117C228.669 102.187 227.218 102.788 225.705 102.788Z" fill="#3F3D56"/>
<path d="M190.156 136.979C194.912 136.979 198.768 133.123 198.768 128.367C198.768 123.611 194.912 119.755 190.156 119.755C185.4 119.755 181.544 123.611 181.544 128.367C181.544 133.123 185.4 136.979 190.156 136.979Z" fill="white"/>
<path d="M190.182 115.692C186.918 115.692 183.787 116.988 181.478 119.297C179.17 121.605 177.873 124.736 177.873 128C177.873 134.798 190.182 157.121 190.182 157.121C190.182 157.121 202.491 134.799 202.491 128C202.491 124.736 201.194 121.605 198.886 119.297C196.577 116.988 193.447 115.692 190.182 115.692ZM190.182 134.005C189.054 134.005 187.951 133.67 187.013 133.044C186.075 132.417 185.344 131.526 184.912 130.484C184.48 129.441 184.368 128.294 184.588 127.188C184.808 126.081 185.351 125.065 186.149 124.267C186.946 123.47 187.963 122.926 189.069 122.706C190.176 122.486 191.323 122.599 192.365 123.031C193.407 123.463 194.298 124.194 194.925 125.132C195.552 126.07 195.886 127.173 195.886 128.301C195.886 129.814 195.285 131.264 194.216 132.334C193.146 133.404 191.695 134.005 190.182 134.005Z" fill="#3F3D56"/>
<path d="M190.156 81.5411C194.912 81.5411 198.768 77.6856 198.768 72.9295C198.768 68.1734 194.912 64.3179 190.156 64.3179C185.4 64.3179 181.544 68.1734 181.544 72.9295C181.544 77.6856 185.4 81.5411 190.156 81.5411Z" fill="white"/>
<path d="M190.182 60.2544C186.918 60.2544 183.787 61.5512 181.478 63.8596C179.17 66.1679 177.873 69.2987 177.873 72.5632C177.873 79.3612 190.182 101.684 190.182 101.684C190.182 101.684 202.491 79.3613 202.491 72.5632C202.491 69.2987 201.194 66.1679 198.886 63.8596C196.577 61.5512 193.447 60.2544 190.182 60.2544ZM190.182 78.5676C189.054 78.5676 187.951 78.233 187.013 77.6063C186.075 76.9795 185.344 76.0886 184.912 75.0463C184.48 74.004 184.368 72.8571 184.588 71.7506C184.808 70.6442 185.351 69.6278 186.149 68.83C186.946 68.0323 187.963 67.489 189.069 67.2689C190.176 67.0488 191.323 67.1618 192.365 67.5935C193.407 68.0253 194.298 68.7564 194.925 69.6944C195.552 70.6325 195.886 71.7353 195.886 72.8635C195.886 73.6125 195.739 74.3543 195.452 75.0463C195.165 75.7384 194.745 76.3672 194.216 76.8969C193.686 77.4266 193.057 77.8467 192.365 78.1334C191.673 78.42 190.931 78.5676 190.182 78.5676Z" fill="#CCCCCC"/>
<path d="M247.746 148.281C252.502 148.281 256.358 144.426 256.358 139.67C256.358 134.914 252.502 131.058 247.746 131.058C242.99 131.058 239.135 134.914 239.135 139.67C239.135 144.426 242.99 148.281 247.746 148.281Z" fill="white"/>
<path d="M247.772 126.995C244.508 126.995 241.377 128.291 239.069 130.6C236.76 132.908 235.463 136.039 235.463 139.303C235.463 146.101 247.772 168.424 247.772 168.424C247.772 168.424 260.081 146.101 260.081 139.303C260.081 136.039 258.784 132.908 256.476 130.6C254.168 128.291 251.037 126.995 247.772 126.995ZM247.772 145.308C246.644 145.308 245.541 144.973 244.603 144.346C243.665 143.72 242.934 142.829 242.502 141.787C242.071 140.744 241.958 139.597 242.178 138.491C242.398 137.384 242.941 136.368 243.739 135.57C244.537 134.773 245.553 134.229 246.659 134.009C247.766 133.789 248.913 133.902 249.955 134.334C250.997 134.766 251.888 135.497 252.515 136.435C253.142 137.373 253.476 138.476 253.476 139.604C253.476 141.117 252.875 142.567 251.806 143.637C250.736 144.707 249.285 145.308 247.772 145.308Z" fill="#CCCCCC"/>
<path d="M136.872 128.905C141.628 128.905 145.483 125.05 145.483 120.293C145.483 115.537 141.628 111.682 136.872 111.682C132.116 111.682 128.26 115.537 128.26 120.293C128.26 125.05 132.116 128.905 136.872 128.905Z" fill="white"/>
<path d="M136.898 107.619C133.633 107.619 130.502 108.915 128.194 111.224C125.886 113.532 124.589 116.663 124.589 119.928C124.589 126.725 136.898 149.048 136.898 149.048C136.898 149.048 149.207 126.726 149.207 119.928C149.207 116.663 147.91 113.532 145.601 111.224C143.293 108.915 140.162 107.619 136.898 107.619ZM136.898 125.932C135.77 125.932 134.667 125.597 133.729 124.971C132.791 124.344 132.06 123.453 131.628 122.411C131.196 121.368 131.083 120.221 131.303 119.115C131.523 118.008 132.067 116.992 132.864 116.194C133.662 115.397 134.678 114.853 135.785 114.633C136.891 114.413 138.038 114.526 139.081 114.958C140.123 115.39 141.014 116.121 141.641 117.059C142.267 117.997 142.602 119.1 142.602 120.228C142.602 121.741 142.001 123.191 140.931 124.261C139.861 125.331 138.411 125.932 136.898 125.932Z" fill="#CCCCCC"/>
<path d="M140.101 175.731C144.857 175.731 148.713 171.875 148.713 167.119C148.713 162.363 144.857 158.507 140.101 158.507C135.345 158.507 131.489 162.363 131.489 167.119C131.489 171.875 135.345 175.731 140.101 175.731Z" fill="white"/>
<path d="M140.127 154.444C136.863 154.444 133.732 155.741 131.423 158.049C129.115 160.358 127.818 163.488 127.818 166.753C127.818 173.551 140.127 195.874 140.127 195.874C140.127 195.874 152.436 173.551 152.436 166.753C152.436 163.488 151.139 160.358 148.831 158.049C146.522 155.741 143.392 154.444 140.127 154.444ZM140.127 172.757C138.999 172.757 137.896 172.423 136.958 171.796C136.02 171.169 135.289 170.278 134.857 169.236C134.425 168.194 134.313 167.047 134.533 165.94C134.753 164.834 135.296 163.817 136.094 163.02C136.891 162.222 137.908 161.679 139.014 161.459C140.121 161.239 141.268 161.352 142.31 161.783C143.352 162.215 144.243 162.946 144.87 163.884C145.497 164.822 145.831 165.925 145.831 167.053C145.831 168.566 145.23 170.017 144.161 171.087C143.091 172.156 141.64 172.757 140.127 172.757Z" fill="#3F3D56"/>
</svg>
