<svg width="328" height="230" viewBox="0 0 328 230" fill="none" xmlns="http://www.w3.org/2000/svg">
<g clip-path="url(#clip0_350_4699)">
<path d="M328 217.172H6.10352e-05V218.172H328V217.172Z" fill="#3F3D56"/>
<path d="M235.985 105.407C232.949 87.1987 217.121 73.3228 198.053 73.3228H120.075C101.014 73.3228 85.1902 87.1876 82.1425 105.385C81.7907 107.466 81.6092 109.607 81.6092 111.788V179.731C81.6092 181.912 81.7907 184.049 82.1425 186.13C84.5681 200.628 95.1074 212.379 108.935 216.552C112.461 217.619 116.201 218.193 120.075 218.193H198.053C201.927 218.193 205.667 217.619 209.193 216.552C223.024 212.375 233.567 200.617 235.985 186.108C236.333 184.034 236.515 181.905 236.515 179.731V111.788C236.515 109.614 236.333 107.481 235.985 105.407ZM204.652 216.552C202.508 216.934 200.305 217.134 198.053 217.134H120.075C117.823 217.134 115.62 216.934 113.475 216.552C95.9666 213.438 82.672 198.136 82.672 179.731V157.178C82.672 93.4535 134.328 74.3856 198.053 74.3856C218.71 74.3856 235.456 91.1315 235.456 111.788V179.731C185.31 186.441 222.161 213.438 204.652 216.552Z" fill="#3F3D56"/>
<path d="M174.581 124.594L177.581 144.094L221.581 138.094L217.331 115.31L174.581 124.594Z" fill="#273A69"/>
<path d="M209.113 15.1711H190.921V34.0018H209.113V15.1711Z" fill="#2F2E41"/>
<path d="M192.581 35.0938L197.081 21.5938H205.852L206.313 35.0938H192.581Z" fill="#FFB6B6"/>
<path opacity="0.1" d="M192.581 35.0938L197.081 21.5938H205.852L206.313 35.0938H192.581Z" fill="black"/>
<path d="M197.331 155.344L196.831 207.344L196.331 211.344V217.086L203.831 217.844L204.331 206.344C204.331 206.344 212.331 183.844 210.331 166.344C208.331 148.844 209.331 153.844 209.331 153.844L197.331 155.344Z" fill="#FFB6B6"/>
<path d="M202.092 159.427L183.641 208.046L182.652 211.954L180.563 217.303L173.301 215.28L177.019 204.386C177.019 204.386 177.752 180.518 185.981 164.944C194.21 149.371 191.46 153.664 191.46 153.664L202.092 159.427Z" fill="#FFB6B6"/>
<path d="M192.581 33.5933L179.081 39.5933L187.701 84.0993L186.339 147.977L177.339 166.977C177.339 166.977 175.831 177.843 191.331 170.843C206.831 163.843 224.331 161.843 224.331 161.843L220.081 132.593L216.331 55.8433L216.831 38.8433L205.831 31.8433C205.831 31.8433 192.581 33.5933 192.581 33.5933Z" fill="#2F2E41"/>
<path d="M185.062 167.672L170.081 142.594L187.201 84.0996L179.081 39.5935L193.326 33.4951C193.326 33.4951 200.701 40.6764 200.701 46.5996C200.701 52.5228 185.062 167.672 185.062 167.672Z" fill="#E6E6E6"/>
<path d="M217.562 162.672L203.964 45.8579C203.792 44.3829 204.044 42.8895 204.69 41.5523L208.581 33.4951L223.831 37.8435L217.701 85.5996L234.081 132.594L217.562 162.672Z" fill="#E6E6E6"/>
<path d="M205.331 216.844C205.331 216.844 195.831 211.344 194.831 214.344C193.831 217.344 193.331 219.844 193.331 219.844C193.331 219.844 190.831 229.344 198.331 229.344C205.831 229.344 205.331 225.023 205.331 225.023V216.844Z" fill="#2F2E41"/>
<path d="M172.268 213.803C172.268 213.803 183.118 212.136 182.958 215.294C182.798 218.452 182.354 220.963 182.354 220.963C182.354 220.963 181.227 230.721 174.241 227.993C167.255 225.265 169.293 221.422 169.293 221.422L172.268 213.803Z" fill="#2F2E41"/>
<path d="M202.051 28.9407C208.916 28.9407 214.481 23.3757 214.481 16.5108C214.481 9.6459 208.916 4.08081 202.051 4.08081C195.187 4.08081 189.621 9.6459 189.621 16.5108C189.621 23.3757 195.187 28.9407 202.051 28.9407Z" fill="#FFB6B6"/>
<path d="M211.982 5.43383C211.404 2.36915 208.258 0.296261 205.15 0.036326C202.042 -0.223609 198.998 0.949956 196.199 2.32593C194.301 3.25867 192.433 4.30999 190.897 5.76184C189.36 7.2137 188.166 9.1103 187.891 11.2064C187.793 11.948 187.806 12.7229 187.502 13.4065C187.123 14.2605 186.309 14.8405 185.818 15.6353C184.936 17.0608 185.341 19.1346 186.694 20.1241C184.994 20.8486 183.247 21.6044 181.951 22.9219C180.655 24.2393 179.906 26.2734 180.617 27.9792C180.869 28.5827 181.285 29.1109 181.5 29.7284C181.908 30.9009 181.52 32.2329 180.795 33.2413C180.071 34.2497 179.049 34.9975 178.044 35.7274C180.625 36.2333 183.26 36.6275 185.879 36.3915C188.499 36.1555 191.128 35.2375 193.025 33.4156C194.922 31.5938 195.965 28.7834 195.285 26.2429C194.763 24.2968 193.305 22.5914 193.306 20.5766C193.307 19.0279 194.178 17.6309 195.019 16.3303C196.855 13.49 198.691 10.6496 200.528 7.80931C200.858 7.29839 201.207 6.76969 201.729 6.45718C202.617 5.92555 203.769 6.15934 204.705 6.6006C205.641 7.04186 206.496 7.67493 207.494 7.94852C209.532 8.50691 211.895 7.22458 212.537 5.21222" fill="#2F2E41"/>
<path d="M204.64 30.7127C203.604 31.7157 202.111 32.0388 200.728 32.4453C199.345 32.8517 197.873 33.491 197.25 34.7915C196.64 36.0667 197.083 37.6854 198.094 38.674C199.105 39.6626 200.573 40.079 201.987 40.0594C203.4 40.0398 204.778 39.6254 206.108 39.1443C209.743 37.8289 213.186 35.9836 216.294 33.6848C214.281 33.1278 212.964 30.7768 213.54 28.7688C214.009 27.1354 215.442 25.9962 216.418 24.6048C218.098 22.209 218.378 19.051 217.821 16.1784C217.265 13.3058 215.956 10.6429 214.66 8.01959C214.25 7.19032 213.831 6.34702 213.191 5.67836C212.552 5.0097 211.648 4.53066 210.728 4.62646C209.201 4.78544 208.226 6.46141 208.216 7.99632C208.205 9.53122 208.879 10.9738 209.389 12.4213C209.916 13.9125 210.281 15.4933 210.14 17.0684C210.022 18.3883 209.542 19.674 208.766 20.7485C208.167 21.5783 207.404 22.2746 206.752 23.064C206.249 23.6743 205.802 24.3656 205.67 25.1456C205.429 26.5652 206.262 28.0015 206.033 29.4232C205.792 30.926 204.211 32.0766 202.707 31.8436" fill="#2F2E41"/>
<path d="M166.624 204.323C190.096 204.323 209.124 185.295 209.124 161.823C209.124 138.351 190.096 119.323 166.624 119.323C143.152 119.323 124.124 138.351 124.124 161.823C124.124 185.295 143.152 204.323 166.624 204.323Z" fill="#273A69"/>
<path d="M192.089 158.411H186.806C185.984 153.568 183.447 149.181 179.66 146.053C170.943 138.853 158.039 140.082 150.839 148.8C150.815 148.827 150.791 148.856 150.768 148.885C150.193 149.631 150.331 150.702 151.077 151.277C151.823 151.853 152.893 151.715 153.469 150.969C156.597 147.179 161.331 144.768 166.624 144.768C174.728 144.769 181.714 150.471 183.337 158.411H178.678C178.479 158.411 178.286 158.481 178.133 158.609C177.771 158.91 177.722 159.448 178.023 159.81L184.729 167.859C184.762 167.899 184.798 167.935 184.837 167.968C185.199 168.269 185.737 168.221 186.038 167.859L192.744 159.81C192.872 159.657 192.941 159.464 192.942 159.264C192.942 158.793 192.56 158.411 192.089 158.411Z" fill="white"/>
<path d="M182.172 172.367C181.426 171.792 180.355 171.93 179.78 172.676C177.299 175.68 173.864 177.744 170.048 178.525C160.817 180.415 151.801 174.464 149.911 165.233H154.571C155.042 165.233 155.423 164.851 155.423 164.38C155.423 164.181 155.353 163.988 155.225 163.835L148.52 155.785C148.218 155.424 147.681 155.375 147.319 155.677C147.279 155.71 147.243 155.746 147.21 155.785L140.505 163.835C140.203 164.197 140.252 164.734 140.614 165.036C140.767 165.163 140.96 165.233 141.16 165.233H146.443C147.265 170.077 149.801 174.463 153.589 177.592C162.306 184.792 175.21 183.562 182.409 174.845C182.434 174.817 182.458 174.788 182.48 174.759C183.056 174.013 182.917 172.942 182.172 172.367Z" fill="white"/>
<path d="M178.491 118.597C177.976 122.28 175.659 125 173.315 124.672C170.971 124.344 169.488 121.093 170.004 117.408C170.19 115.934 170.726 114.525 171.567 113.3L173.945 97.7222L181.232 98.9939L178.114 114.216C178.588 115.625 178.717 117.127 178.491 118.597Z" fill="#FFB6B6"/>
<path d="M184.831 38.843C184.831 38.843 177.331 36.343 176.331 45.343C175.331 54.343 174.331 65.343 174.331 65.343C174.331 65.343 169.831 75.843 171.831 81.343C173.831 86.843 177.331 83.0084 173.831 87.6757C170.331 92.343 170.819 107.699 170.819 107.699L182.081 107.132C182.081 107.132 188.331 65.843 188.331 64.843C188.331 63.843 184.831 38.843 184.831 38.843Z" fill="#E6E6E6"/>
<path d="M233.581 116.925C233.72 120.641 231.916 123.726 229.55 123.814C227.185 123.902 225.156 120.962 225.017 117.244C224.941 115.76 225.222 114.279 225.835 112.925L225.443 97.1718L232.84 97.1455L232.441 112.678C233.155 113.983 233.545 115.439 233.581 116.925Z" fill="#FFB6B6"/>
<path d="M222.035 38.6745C222.035 38.6745 229.578 36.3089 230.417 45.3253C231.256 54.3417 232.06 70.8578 232.06 70.8578C232.06 70.8578 236.371 81.4365 234.273 86.8999C232.175 92.3633 228.745 88.4668 232.161 93.1959C235.577 97.925 234.351 111.261 234.351 111.261L223.1 110.493C223.1 110.493 218.053 71.1076 218.071 70.1078C218.089 69.1079 222.035 38.6745 222.035 38.6745Z" fill="#E6E6E6"/>
</g>
<defs>
<clipPath id="clip0_350_4699">
<rect width="328" height="229.343" fill="white"/>
</clipPath>
</defs>
</svg>
