<svg width="160" height="160" viewBox="0 0 160 160" fill="none" xmlns="http://www.w3.org/2000/svg">
<g opacity="0.1">
<path d="M14.4001 31.463L17.0033 38.7827C17.1148 39.0962 17.3354 39.3446 17.6139 39.4699L24.117 42.3999C25.0358 42.814 25.0358 44.2777 24.117 44.6915L17.6139 47.6215C17.3354 47.7468 17.1148 47.9952 17.0033 48.3087L14.4001 55.6284C14.0323 56.6624 12.7317 56.6624 12.3642 55.6284L9.76107 48.3087C9.6495 47.9952 9.42888 47.7468 9.15044 47.6215L2.64731 44.6915C1.72856 44.2774 1.72856 42.8137 2.64731 42.3999L9.15044 39.4699C9.42888 39.3446 9.6495 39.0962 9.76107 38.7827L12.3642 31.463C12.7317 30.429 14.0323 30.429 14.4001 31.463Z" fill="#141312"/>
<path d="M46.719 0.813672L48.65 6.24305C48.7328 6.47555 48.8962 6.65961 49.1028 6.75273L53.9268 8.92617C54.6084 9.23336 54.6084 10.319 53.9268 10.6262L49.1028 12.7996C48.8962 12.8927 48.7325 13.0768 48.65 13.3093L46.719 18.739C46.4462 19.5062 45.4815 19.5062 45.2087 18.739L43.2778 13.3093C43.1953 13.0768 43.0315 12.8927 42.825 12.7996L38.0009 10.6262C37.3194 10.319 37.3194 9.23336 38.0009 8.92617L42.825 6.75273C43.0315 6.65961 43.1953 6.47555 43.2778 6.24305L45.2087 0.813672C45.4815 0.0464844 46.4462 0.0464844 46.719 0.813672Z" fill="#141312"/>
<path d="M157.96 26.8373C158.689 23.7828 156.803 20.7163 153.749 19.988C150.694 19.2597 147.628 21.1454 146.899 24.1999C146.171 27.2543 148.057 30.3209 151.111 31.0492C154.166 31.7775 157.232 29.8917 157.96 26.8373Z" fill="#141312"/>
<path d="M19.2146 18.3207C20.5687 18.3207 21.6664 17.223 21.6664 15.8689C21.6664 14.5147 20.5687 13.417 19.2146 13.417C17.8604 13.417 16.7627 14.5147 16.7627 15.8689C16.7627 17.223 17.8604 18.3207 19.2146 18.3207Z" fill="#141312"/>
<path d="M140.205 48.3404C137.29 39.2029 132.128 31.282 125.242 25.1795L128.505 19.5276C130.244 16.5157 130.706 13.0073 129.806 9.6479C128.906 6.28852 126.751 3.48102 123.739 1.74227C117.522 -1.84742 109.544 0.290709 105.954 6.5079L101.962 13.422C92.6503 11.4345 82.8862 12.0926 73.5525 15.4488C60.145 20.2701 49.23 30.081 42.8175 43.0751C42.7919 43.1273 42.7341 43.2476 42.6462 43.4304C40.1144 48.7107 34.9587 59.0582 28.8753 69.0345C23.6044 77.6782 19.5734 82.8507 16.5884 85.9404C11.6659 84.6063 6.31344 86.892 3.97281 91.6351L3.84938 91.8857C2.56156 94.4951 2.36719 97.4495 3.30188 100.205C4.23656 102.961 6.18813 105.188 8.7975 106.475L58.1216 130.816C56.7566 133.531 55.985 136.593 55.985 139.833C55.985 150.953 65.0319 160 76.1519 160C84.1081 160 90.9991 155.366 94.2781 148.658L107.353 155.11C108.898 155.873 110.539 156.234 112.156 156.234C116.175 156.234 120.047 154.003 121.942 150.163L122.067 149.91C124.243 145.5 123.147 140.315 119.723 137.12C120.349 132.56 122.09 125.53 126.14 114.746C131.107 101.519 136.918 89.656 136.976 89.5395C143.388 76.546 144.535 61.9142 140.205 48.3404ZM111.443 9.67634C112.336 8.13071 113.776 7.02508 115.5 6.56321C116.076 6.40883 116.66 6.33258 117.241 6.33258C118.398 6.33258 119.541 6.63633 120.571 7.23071C122.116 8.12321 123.222 9.56383 123.684 11.2879C124.146 13.012 123.908 14.8126 123.016 16.3582L120.195 21.2454C118.213 19.8923 116.127 18.6676 113.939 17.5882C112.08 16.671 110.182 15.8757 108.256 15.1966L111.443 9.67634ZM76.1519 153.662C68.5266 153.662 62.3228 147.459 62.3228 139.833C62.3228 137.599 62.8572 135.489 63.8025 133.619L88.5912 145.852C86.3506 150.469 81.62 153.662 76.1519 153.662ZM116.383 147.105L116.258 147.357C115.147 149.61 112.41 150.538 110.157 149.426L11.6022 100.792C10.5109 100.253 9.69469 99.3223 9.30406 98.1698C8.91313 97.0176 8.99438 95.782 9.53375 94.6895L9.65719 94.4389C10.7691 92.1863 13.5056 91.2579 15.7584 92.3698L114.313 141.004C116.566 142.116 117.494 144.853 116.383 147.105ZM131.292 86.7348C131.234 86.8535 125.285 98.9935 120.207 112.514C116.74 121.749 114.804 128.583 113.849 133.708L22.6609 88.7085C25.8753 85.0788 29.7028 79.852 34.2866 72.3345C40.5147 62.1213 45.7781 51.5582 48.3616 46.1707C48.4331 46.0213 48.4803 45.9229 48.5016 45.8798C54.1837 34.3651 63.8422 25.6757 75.6972 21.4129C87.5112 17.1645 100.096 17.8245 111.134 23.2716C122.171 28.7182 130.351 38.3051 134.167 50.266C137.995 62.2688 136.974 75.2204 131.292 86.7348Z" fill="#141312"/>
<path d="M63.5221 46.2811C62.8218 46.2811 62.1174 46.0505 61.5308 45.5758C60.1702 44.4749 59.9593 42.4796 61.0599 41.1189C64.0283 37.4492 67.5349 34.2817 71.4818 31.7046C72.9468 30.7474 74.9111 31.1599 75.8677 32.6255C76.8246 34.0911 76.4124 36.0546 74.9468 37.0114C71.554 39.2267 68.5396 41.9499 65.9874 45.1049C65.3615 45.8789 64.4458 46.2811 63.5221 46.2811Z" fill="#141312"/>
<path d="M82.8672 32.8889C81.5344 32.8889 80.2944 32.0414 79.8566 30.7061C79.3112 29.0429 80.2178 27.2529 81.8809 26.7076C83.085 26.3129 84.3231 25.9667 85.5609 25.6782C87.2653 25.2807 88.9694 26.3404 89.3663 28.0451C89.7634 29.7495 88.7038 31.4532 86.9994 31.8507C85.9419 32.0973 84.8837 32.3929 83.8553 32.7301C83.5272 32.8376 83.1944 32.8889 82.8672 32.8889Z" fill="#141312"/>
</g>
</svg>
