<svg width="327" height="17" viewBox="0 0 327 17" fill="none" xmlns="http://www.w3.org/2000/svg">
<line x1="0.5" y1="-0.5" x2="143.5" y2="-0.5" transform="matrix(-1 0 0 1 144 8.5)" stroke="url(#paint0_linear_30_318)" stroke-linecap="round"/>
<path d="M163.103 7.84277V8.33691C163.103 8.92415 163.03 9.45052 162.883 9.91602C162.736 10.3815 162.525 10.7772 162.249 11.103C161.973 11.4289 161.642 11.6777 161.255 11.8496C160.872 12.0215 160.442 12.1074 159.966 12.1074C159.504 12.1074 159.08 12.0215 158.693 11.8496C158.31 11.6777 157.977 11.4289 157.694 11.103C157.415 10.7772 157.198 10.3815 157.044 9.91602C156.89 9.45052 156.813 8.92415 156.813 8.33691V7.84277C156.813 7.25553 156.889 6.73096 157.039 6.26904C157.193 5.80355 157.41 5.40788 157.689 5.08203C157.968 4.7526 158.299 4.50195 158.683 4.33008C159.069 4.1582 159.494 4.07227 159.955 4.07227C160.432 4.07227 160.861 4.1582 161.245 4.33008C161.631 4.50195 161.962 4.7526 162.238 5.08203C162.517 5.40788 162.731 5.80355 162.877 6.26904C163.028 6.73096 163.103 7.25553 163.103 7.84277ZM162.077 8.33691V7.83203C162.077 7.36654 162.029 6.95475 161.932 6.59668C161.839 6.23861 161.701 5.93783 161.518 5.69434C161.336 5.45085 161.112 5.26644 160.847 5.14111C160.586 5.01579 160.288 4.95312 159.955 4.95312C159.633 4.95312 159.341 5.01579 159.08 5.14111C158.822 5.26644 158.6 5.45085 158.414 5.69434C158.231 5.93783 158.09 6.23861 157.99 6.59668C157.889 6.95475 157.839 7.36654 157.839 7.83203V8.33691C157.839 8.80599 157.889 9.22135 157.99 9.58301C158.09 9.94108 158.233 10.2437 158.419 10.4907C158.609 10.7342 158.833 10.9186 159.091 11.0439C159.352 11.1693 159.644 11.2319 159.966 11.2319C160.303 11.2319 160.602 11.1693 160.863 11.0439C161.125 10.9186 161.345 10.7342 161.524 10.4907C161.706 10.2437 161.844 9.94108 161.937 9.58301C162.031 9.22135 162.077 8.80599 162.077 8.33691ZM164.955 4.17969H167.544C168.131 4.17969 168.627 4.26921 169.032 4.44824C169.44 4.62728 169.75 4.89225 169.961 5.24316C170.176 5.59049 170.283 6.01839 170.283 6.52686C170.283 6.88493 170.21 7.21257 170.063 7.50977C169.92 7.80339 169.712 8.05404 169.44 8.26172C169.171 8.46582 168.849 8.618 168.473 8.71826L168.183 8.83105H165.75L165.739 7.98779H167.576C167.949 7.98779 168.258 7.92334 168.505 7.79443C168.753 7.66195 168.939 7.4847 169.064 7.2627C169.189 7.04069 169.252 6.79541 169.252 6.52686C169.252 6.22607 169.193 5.96289 169.075 5.7373C168.957 5.51172 168.77 5.33805 168.516 5.21631C168.266 5.09098 167.942 5.02832 167.544 5.02832H165.992V12H164.955V4.17969ZM169.526 12L167.625 8.45508L168.704 8.44971L170.632 11.9355V12H169.526Z" fill="#6B7280"/>
<line x1="183.5" y1="8" x2="326.5" y2="8" stroke="url(#paint1_linear_30_318)" stroke-linecap="round"/>
<defs>
<linearGradient id="paint0_linear_30_318" x1="0" y1="0" x2="144" y2="-9.31414e-09" gradientUnits="userSpaceOnUse">
<stop stop-color="#E5E7EB"/>
<stop offset="1" stop-color="#E5E7EB" stop-opacity="0"/>
</linearGradient>
<linearGradient id="paint1_linear_30_318" x1="183" y1="8.5" x2="327" y2="8.5" gradientUnits="userSpaceOnUse">
<stop stop-color="#E5E7EB"/>
<stop offset="1" stop-color="#E5E7EB" stop-opacity="0"/>
</linearGradient>
</defs>
</svg>
