<svg width="358" height="180" viewBox="0 0 358 180" fill="none" xmlns="http://www.w3.org/2000/svg">
<g clip-path="url(#clip0_708_2760)">
<path d="M117.897 179.463C107.094 179.463 96.3079 179.27 85.5378 178.883C70.1487 178.33 54.2356 177.759 39.4449 169.556C29.0982 163.818 19.9346 154.612 12.945 142.932C8.27328 135.016 4.84777 126.427 2.78879 117.469C-1.05201 101.159 -0.921185 84.1647 3.17025 67.9155C4.60405 62.3443 6.58064 56.9272 9.07165 51.7418C19.8579 29.4057 39.5312 14.412 63.0473 10.6057C63.2415 10.5805 63.4379 10.5763 63.633 10.5932C63.7387 10.5989 63.8442 10.6049 63.9516 10.6004L64.09 10.5564C64.4447 10.4332 64.809 10.3397 65.1792 10.2769C101.447 4.87765 139.788 15.8022 176.053 41.8688C204.094 62.0262 241.255 72.8806 289.661 75.0523L290.348 75.0883C303.823 75.8624 316.858 81.4178 328.044 91.1549C339.085 100.765 347.375 113.587 352.018 128.236C352.588 130.022 353.112 131.881 353.573 133.761C354.002 135.508 353.972 137.337 353.485 139.069C352.998 140.801 352.071 142.377 350.794 143.645V143.649L350.673 143.772C350.383 144.061 350.078 144.338 349.766 144.595L349.399 144.898C346.305 147.446 343.862 149.459 340.938 151.023C338.987 152.058 336.913 152.841 334.765 153.353C322.969 156.229 310.99 158.895 299.161 161.279C276.188 165.911 252.609 169.732 229.08 172.635C192.194 177.184 155.063 179.464 117.897 179.463ZM63.358 11.3843C63.2857 11.3836 63.2135 11.3885 63.142 11.3989C39.8458 15.1697 20.3587 30.0161 9.67942 52.1312C7.21299 57.2651 5.25596 62.6286 3.83642 68.1446C-0.217731 84.2497 -0.346926 101.093 3.4597 117.258C5.49853 126.131 8.89083 134.637 13.5175 142.478C20.4386 154.043 29.5085 163.157 39.7468 168.834C54.4047 176.964 70.2428 177.533 85.5596 178.083C133.465 179.794 181.431 177.707 229.006 171.839C252.52 168.937 276.083 165.119 299.041 160.49C310.862 158.108 322.833 155.444 334.621 152.57C336.717 152.071 338.742 151.307 340.645 150.296C343.51 148.765 345.93 146.771 348.994 144.247L349.361 143.945C349.629 143.723 349.893 143.486 350.145 143.24L350.217 143.164C352.735 140.626 353.714 137.278 352.903 133.978V133.978C352.447 132.118 351.93 130.279 351.365 128.511C341.881 98.5877 317.347 77.4407 290.315 75.8882L289.631 75.8522C267.52 74.86 248.171 72.1116 230.481 67.4491C209.364 61.8835 190.927 53.5054 175.685 42.5479C139.558 16.5812 101.377 5.69728 65.2678 11.0709C64.9305 11.1291 64.5986 11.2152 64.2755 11.3282L64.0261 11.398C63.8844 11.4043 63.7425 11.4026 63.601 11.3929C63.5177 11.3886 63.4369 11.3843 63.358 11.3843Z" fill="#F0F0F0"/>
<path d="M111.825 58.4708C110.825 57.5114 109.802 52.1609 108.525 51.6177C109.479 53.7269 108.786 54.2853 108.781 56.6002C108.793 57.9146 108.64 59.2253 108.324 60.5013H86.6967V43.6224C86.6966 42.1058 86.9953 40.6041 87.5757 39.2029C88.156 37.8017 89.0067 36.5286 90.0791 35.4562C91.1515 34.3838 92.4246 33.5331 93.8258 32.9527C95.227 32.3724 96.7288 32.0737 98.2454 32.0737C98.8242 32.085 99.3993 32.1692 99.9571 32.3243C101.816 32.8262 103.51 33.8081 104.87 35.1716C106.23 36.535 107.207 38.232 107.704 40.0924C109.353 46.1189 111.975 56.1504 111.825 58.4708Z" fill="#2F2E41"/>
<path d="M87.9657 79.2352L87.9763 66.0791L80.2428 66.7702L82.9721 75.0677L81.6947 95.9238C81.0752 96.0628 80.5095 96.3791 80.0667 96.8341C79.6238 97.289 79.3228 97.863 79.2006 98.4861C79.0783 99.1091 79.1399 99.7543 79.3779 100.343C79.6159 100.932 80.0201 101.438 80.5411 101.801C81.0621 102.164 81.6775 102.367 82.3121 102.387C82.9467 102.406 83.5733 102.24 84.1153 101.909C84.6573 101.579 85.0914 101.097 85.3646 100.524C85.6378 99.9511 85.7384 99.3108 85.654 98.6815L87.9657 79.2352Z" fill="#FFB6B6"/>
<path d="M103.185 173.248L106.309 173.248L107.796 161.197H103.184L103.185 173.248Z" fill="#FFB6B6"/>
<path d="M102.127 171.708L107.066 171.413V173.529L111.761 176.772C111.993 176.932 112.168 177.162 112.26 177.429C112.352 177.695 112.356 177.984 112.272 178.253C112.189 178.522 112.021 178.757 111.794 178.924C111.567 179.092 111.292 179.182 111.01 179.182H105.13L104.117 177.088L103.721 179.182H101.504L102.127 171.708Z" fill="#2F2E41"/>
<path d="M85.1194 173.248L88.244 173.248L89.7301 161.197H85.119L85.1194 173.248Z" fill="#FFB6B6"/>
<path d="M84.0616 171.708L89.0006 171.413V173.529L93.6962 176.772C93.9281 176.932 94.1028 177.162 94.1947 177.429C94.2866 177.695 94.291 177.984 94.2071 178.253C94.1232 178.522 93.9555 178.757 93.7285 178.924C93.5015 179.092 93.227 179.182 92.9451 179.182H87.0651L86.0516 177.088L85.6559 179.182H83.4388L84.0616 171.708Z" fill="#2F2E41"/>
<path d="M100.403 51.8721L93.9303 51.999L89.3615 56.8215L85.6987 57.3587C84.0418 57.6017 82.5186 58.4061 81.3835 59.6373C80.2484 60.8686 79.5704 62.4521 79.4626 64.1233L80.0972 67.6088H83.9044L86.107 80.5408C85.2505 82.723 85.1923 84.4456 86.9503 85.1222L92.4073 95.4018L108.525 88.168C109.342 86.7628 109.604 85.3514 108.769 83.9788L109.921 64.1822H113.795C113.795 60.4796 112.543 57.3582 108.863 56.9462C107.402 56.7881 105.933 56.7041 104.464 56.6946L100.403 51.8721Z" fill="#E6E6E6"/>
<path d="M108.525 88.1674C108.525 88.1674 92.788 90.9594 86.9502 85.1216C86.9502 85.1216 86.3575 86.1278 85.4644 87.7964C85.2076 88.2763 84.7115 88.6014 84.412 89.1827C84.1397 89.711 83.4395 90.3604 83.1429 90.9596C82.9043 91.4416 83.2871 92.0715 83.0388 92.5922C80.0491 98.863 76.5562 107.708 77.3051 113.549C77.788 117.316 78.7854 126.08 79.8358 135.494C79.9179 136.23 79.2531 137.174 79.3356 137.916C79.4134 138.615 80.2384 139.11 80.3162 139.811C80.3679 140.276 79.7917 140.751 79.8433 141.215C79.8998 141.725 80.584 142.225 80.6402 142.733C82.0792 155.731 83.3967 167.866 83.3967 167.866H90.7574L92.1462 140.15L91.0112 130.047L93.6763 109.615L97.3567 129.032L97.8301 139.96L101.72 168.374H108.525V140.868L109.032 139.439L108.525 137.606L109.032 135.631L108.525 133.481V88.1674Z" fill="#2F2E41"/>
<path d="M102.389 48.1181C101.387 49.45 99.9604 50.4006 98.3454 50.8136C96.7303 51.2265 95.0227 51.0771 93.5039 50.39C91.9851 49.7029 90.7455 48.5189 89.9894 47.0332C89.2333 45.5475 89.0058 43.8486 89.3442 42.2163C89.6826 40.584 90.5668 39.1156 91.8513 38.0529C93.1357 36.9903 94.7438 36.3968 96.4106 36.3701C98.0774 36.3434 99.7036 36.8852 101.021 37.9062C102.339 38.9272 103.27 40.3666 103.66 41.9872C103.682 42.0751 103.699 42.1626 103.717 42.2533C103.923 43.2692 103.911 44.3172 103.682 45.3282C103.454 46.3392 103.013 47.2901 102.389 48.1181Z" fill="#FFB6B6"/>
<path d="M100.86 43.9325C100.704 43.1513 100.31 42.4376 99.7327 41.8892C99.7897 42.6378 99.6858 43.3898 99.4281 44.0949C97.4985 44.2658 95.5603 43.8818 93.8416 42.9883C92.5471 42.1101 90.8998 42.1862 88.981 42.9883C88.9808 42.0549 89.1646 41.1307 89.5217 40.2684C89.8788 39.4061 90.4023 38.6226 91.0623 37.9627C91.7222 37.3027 92.5057 36.7792 93.368 36.4221C94.2303 36.065 95.1545 35.8812 96.0879 35.8813H97.357C99.2417 35.8817 101.049 36.6306 102.382 37.9633C103.715 39.296 104.464 41.1035 104.464 42.9883C103.293 43.4084 102.086 43.7243 100.86 43.9325Z" fill="#2F2E41"/>
<path d="M45.3377 134.512C56.6137 134.512 65.7548 125.371 65.7548 114.095C65.7548 102.819 56.6137 93.6782 45.3377 93.6782C34.0616 93.6782 24.9205 102.819 24.9205 114.095C24.9205 125.371 34.0616 134.512 45.3377 134.512Z" fill="#F0F0F0"/>
<path d="M175.447 40.8343C186.723 40.8343 195.864 31.6932 195.864 20.4171C195.864 9.14106 186.723 0 175.447 0C164.171 0 155.03 9.14106 155.03 20.4171C155.03 31.6932 164.171 40.8343 175.447 40.8343Z" fill="#F0F0F0"/>
<path d="M337.583 137.715C348.859 137.715 358 128.574 358 117.298C358 106.022 348.859 96.8809 337.583 96.8809C326.307 96.8809 317.166 106.022 317.166 117.298C317.166 128.574 326.307 137.715 337.583 137.715Z" fill="#F0F0F0"/>
<path d="M212.278 22.6436V68.9409C212.278 69.9026 211.898 70.8254 211.222 71.509C210.546 72.1926 209.627 72.5816 208.665 72.5917C208.652 72.5931 208.639 72.5936 208.625 72.5933H203.237C198.925 72.5933 194.79 70.8806 191.742 67.832C188.693 64.7834 186.98 60.6485 186.98 56.3371V22.6436C186.98 21.6749 187.365 20.7459 188.05 20.061C188.735 19.376 189.664 18.9912 190.633 18.9912H192.816C191.805 21.9419 205.533 23.1842 206.287 18.9912H208.625C209.594 18.9912 210.523 19.376 211.208 20.061C211.893 20.746 212.278 21.675 212.278 22.6436Z" fill="#BCC7FF"/>
<path d="M196.287 15.5285C196.287 15.4016 196.338 15.2799 196.428 15.1902C196.517 15.1004 196.639 15.05 196.766 15.0498H200.021C200.147 15.0502 200.269 15.1008 200.358 15.1905C200.448 15.2802 200.498 15.4018 200.498 15.5285C200.498 15.6552 200.448 15.7767 200.358 15.8664C200.269 15.9562 200.147 16.0068 200.021 16.0071H196.766C196.639 16.007 196.517 15.9565 196.428 15.8668C196.338 15.777 196.287 15.6554 196.287 15.5285Z" fill="#3F3D56"/>
<path d="M209.743 78.4649H189.16C187.563 78.4631 186.032 77.8279 184.903 76.6987C183.773 75.5695 183.138 74.0384 183.136 72.4414V40.0778C183.023 39.9966 182.931 39.8897 182.868 39.7658C182.804 39.642 182.771 39.5048 182.771 39.3657V36.1108C182.771 35.9717 182.804 35.8345 182.868 35.7107C182.931 35.5869 183.023 35.48 183.136 35.3989V34.5253C183.023 34.4441 182.931 34.3372 182.868 34.2134C182.804 34.0896 182.771 33.9525 182.771 33.8133V30.5583C182.771 30.4192 182.804 30.282 182.868 30.1582C182.931 30.0344 183.023 29.9275 183.136 29.8463V28.2675C182.997 28.1925 182.88 28.081 182.799 27.945C182.718 27.8089 182.675 27.6534 182.676 27.4949V24.2401C182.675 24.0816 182.718 23.9261 182.799 23.79C182.88 23.6539 182.997 23.5423 183.136 23.4673V19.1411C183.138 17.5441 183.773 16.0131 184.903 14.8839C186.032 13.7546 187.563 13.1195 189.16 13.1177H209.743C211.34 13.1195 212.871 13.7547 214.001 14.8839C215.13 16.0131 215.765 17.5441 215.767 19.1411V28.5714C215.875 28.6393 215.965 28.7336 216.027 28.8455C216.089 28.9574 216.121 29.0833 216.121 29.2112V35.4176C216.121 35.5456 216.089 35.6715 216.027 35.7834C215.965 35.8953 215.875 35.9897 215.767 36.0576V72.4414C215.765 74.0384 215.13 75.5694 214.001 76.6986C212.871 77.8279 211.34 78.4631 209.743 78.4649ZM189.16 13.9183C187.775 13.9199 186.448 14.4706 185.468 15.4498C184.489 16.4289 183.938 17.7564 183.937 19.1411V24.1484L183.552 24.1633C183.532 24.164 183.513 24.1723 183.499 24.1866C183.485 24.2009 183.477 24.2201 183.476 24.2401V27.4949C183.477 27.5149 183.485 27.534 183.499 27.5483C183.513 27.5626 183.532 27.571 183.552 27.5718L183.937 27.5864V30.4085L183.632 30.4836C183.615 30.4876 183.6 30.4972 183.59 30.5107C183.579 30.5242 183.572 30.5409 183.572 30.5583V33.8133C183.572 33.8307 183.579 33.8474 183.59 33.8609C183.6 33.8744 183.615 33.8839 183.632 33.888L183.937 33.9631V35.961L183.632 36.0361C183.615 36.0401 183.6 36.0497 183.59 36.0632C183.579 36.0767 183.572 36.0934 183.572 36.1108V39.3656C183.572 39.383 183.579 39.3998 183.589 39.4133C183.6 39.4269 183.615 39.4364 183.632 39.4405L183.937 39.5156V72.4414C183.938 73.8261 184.489 75.1537 185.468 76.1328C186.448 77.1119 187.775 77.6626 189.16 77.6642H209.743C211.128 77.6626 212.456 77.1118 213.435 76.1327C214.414 75.1536 214.965 73.8261 214.966 72.4414V35.3721H215.321V29.257H214.966V19.1411C214.965 17.7564 214.414 16.4289 213.435 15.4498C212.456 14.4707 211.128 13.9199 209.743 13.9183L189.16 13.9183Z" fill="#3F3D56"/>
<path d="M201.84 16.0071C202.104 16.0071 202.318 15.7928 202.318 15.5285C202.318 15.2641 202.104 15.0498 201.84 15.0498C201.575 15.0498 201.361 15.2641 201.361 15.5285C201.361 15.7928 201.575 16.0071 201.84 16.0071Z" fill="#3F3D56"/>
<path d="M97.7141 108.252H44.1543C43.3937 108.25 42.6648 107.947 42.1269 107.409C41.5891 106.871 41.286 106.143 41.2839 105.382V79.2844C41.2859 78.5238 41.5889 77.7949 42.1267 77.2571C42.6645 76.7192 43.3933 76.4161 44.1539 76.4141H97.7137C98.4743 76.416 99.2032 76.719 99.7411 77.2568C100.279 77.7946 100.582 78.5235 100.584 79.2841V105.382C100.582 106.142 100.279 106.871 99.7413 107.409C99.2035 107.947 98.4747 108.25 97.7141 108.252Z" fill="white"/>
<path d="M97.7141 108.252H44.1543C43.3937 108.25 42.6648 107.947 42.1269 107.409C41.5891 106.871 41.286 106.143 41.2839 105.382V79.2844C41.2859 78.5238 41.5889 77.7949 42.1267 77.2571C42.6645 76.7192 43.3933 76.4161 44.1539 76.4141H97.7137C98.4743 76.416 99.2032 76.719 99.7411 77.2568C100.279 77.7946 100.582 78.5235 100.584 79.2841V105.382C100.582 106.142 100.279 106.871 99.7413 107.409C99.2035 107.947 98.4747 108.25 97.7141 108.252ZM44.1543 77.2147C43.6058 77.2164 43.0803 77.435 42.6925 77.8229C42.3046 78.2108 42.0861 78.7364 42.0846 79.2848V105.382C42.0862 105.93 42.3048 106.456 42.6927 106.843C43.0806 107.231 43.6062 107.45 44.1547 107.451H97.7133C98.2619 107.45 98.7875 107.231 99.1754 106.843C99.5633 106.455 99.7819 105.93 99.7834 105.381V79.2845C99.7818 78.736 99.5632 78.2104 99.1753 77.8226C98.7874 77.4348 98.2618 77.2163 97.7133 77.2148L44.1543 77.2147Z" fill="#3F3D56"/>
<path d="M73.8047 104.395C63.2415 104.395 52.227 104.294 48.1174 104.229C47.5767 104.218 47.0618 103.996 46.6826 103.61C46.3034 103.224 46.09 102.706 46.0879 102.165V80.5622C46.0881 80.3685 46.165 80.1828 46.3018 80.0457C46.4385 79.9086 46.624 79.8313 46.8177 79.8306H95.0485C95.2421 79.8308 95.4277 79.9077 95.5648 80.0444C95.7019 80.1812 95.7793 80.3666 95.78 80.5603V95.2174C95.771 97.6099 94.8246 99.9037 93.1438 101.606C91.4631 103.309 89.1819 104.286 86.7897 104.326C82.9595 104.376 78.4241 104.395 73.8047 104.395Z" fill="#BCC7FF"/>
<path d="M92.1856 93.8704H48.6053C48.2404 93.8694 47.8846 93.7561 47.5863 93.5458C47.2881 93.3355 47.0618 93.0386 46.9382 92.6952L42.0056 78.857C41.9105 78.5901 41.8809 78.3043 41.9192 78.0236C41.9575 77.7429 42.0626 77.4755 42.2257 77.2438C42.3888 77.0121 42.605 76.8229 42.8564 76.6922C43.1077 76.5614 43.3868 76.4929 43.6701 76.4923L98.1447 76.4165C98.4036 76.4162 98.6595 76.4728 98.8942 76.5821C99.129 76.6914 99.3369 76.8509 99.5033 77.0493C99.6697 77.2477 99.7905 77.4802 99.8573 77.7304C99.9241 77.9806 99.9353 78.2424 99.8899 78.4973L99.9319 78.5151L99.7755 78.8801L99.774 78.8838L93.811 92.7976C93.6751 93.1162 93.4486 93.3877 93.1596 93.5784C92.8706 93.7692 92.5319 93.8707 92.1856 93.8704ZM98.1472 77.2172L43.6716 77.293C43.5164 77.2933 43.3636 77.3308 43.2259 77.4024C43.0882 77.474 42.9697 77.5776 42.8803 77.7045C42.791 77.8314 42.7334 77.9779 42.7124 78.1317C42.6914 78.2855 42.7077 78.442 42.7597 78.5882L47.6922 92.4258C47.76 92.6139 47.884 92.7767 48.0475 92.8918C48.2109 93.007 48.4059 93.0691 48.6058 93.0697H92.1856C92.3751 93.0699 92.5604 93.0143 92.7186 92.9099C92.8767 92.8055 93.0007 92.6568 93.075 92.4825L99.0382 78.5683C99.1014 78.4209 99.127 78.2601 99.1127 78.1003C99.0985 77.9405 99.0448 77.7868 98.9565 77.6528C98.8682 77.5189 98.748 77.409 98.6068 77.333C98.4655 77.257 98.3076 77.2172 98.1472 77.2172Z" fill="#3F3D56"/>
<path d="M70.8528 96.8821C72.7374 96.8821 74.2652 95.3543 74.2652 93.4696C74.2652 91.5849 72.7374 90.0571 70.8528 90.0571C68.9681 90.0571 67.4403 91.5849 67.4403 93.4696C67.4403 95.3543 68.9681 96.8821 70.8528 96.8821Z" fill="white"/>
<path d="M199.761 67.2581C201.645 67.2581 203.173 65.7302 203.173 63.8456C203.173 61.9609 201.645 60.4331 199.761 60.4331C197.876 60.4331 196.348 61.9609 196.348 63.8456C196.348 65.7302 197.876 67.2581 199.761 67.2581Z" fill="white"/>
<path d="M328.827 113.342L319.712 104.343C319.268 103.901 318.741 103.552 318.162 103.314C317.583 103.076 316.963 102.955 316.337 102.958H316.305C315.674 102.959 315.05 103.086 314.469 103.331C313.887 103.576 313.36 103.933 312.918 104.383C310.88 106.445 309.721 109.218 309.684 112.118C309.647 115.017 310.736 117.818 312.722 119.932C312.818 120.036 312.918 120.136 313.018 120.236C313.573 120.787 314.185 121.277 314.844 121.697C316.646 122.862 318.747 123.478 320.893 123.471H320.961C322.433 123.466 323.89 123.169 325.248 122.597C326.605 122.025 327.835 121.19 328.867 120.14C329.762 119.232 330.26 118.007 330.253 116.733C330.245 115.459 329.733 114.239 328.827 113.342ZM328.299 119.575C326.607 121.28 324.378 122.35 321.989 122.604C319.6 122.857 317.197 122.28 315.184 120.969C314.608 120.588 314.071 120.152 313.579 119.668C311.614 117.728 310.501 115.087 310.484 112.326C310.467 109.566 311.547 106.912 313.487 104.947C313.855 104.571 314.295 104.273 314.78 104.069C315.266 103.865 315.787 103.759 316.313 103.758H316.337C316.858 103.756 317.375 103.857 317.857 104.055C318.339 104.253 318.778 104.544 319.147 104.911L328.263 113.915C329.018 114.661 329.445 115.676 329.452 116.738C329.459 117.799 329.044 118.82 328.299 119.575Z" fill="#3F3D56"/>
<path d="M298.918 83.8057L289.803 74.8022C288.905 73.9119 287.692 73.4138 286.428 73.417H286.4C285.768 73.4195 285.143 73.5471 284.561 73.7924C283.979 74.0377 283.452 74.3959 283.009 74.8462C281.324 76.5575 280.231 78.7635 279.891 81.1409C279.551 83.5184 279.982 85.9422 281.119 88.0573L281.123 88.0613C281.593 88.9264 282.176 89.7248 282.857 90.4353C282.933 90.5233 283.021 90.6114 283.109 90.6995C285.202 92.7774 288.034 93.9406 290.984 93.9342H291.056C292.529 93.928 293.986 93.6302 295.343 93.0578C296.7 92.4854 297.93 91.6499 298.962 90.5994C299.406 90.1505 299.756 89.6186 299.994 89.0342C300.231 88.4498 300.352 87.8243 300.348 87.1934C300.343 86.5626 300.215 85.9387 299.97 85.3574C299.725 84.7761 299.367 84.2489 298.918 83.8057ZM298.39 90.0389C297.432 91.0137 296.29 91.7891 295.03 92.3202C293.771 92.8514 292.419 93.1278 291.052 93.1335H290.984C288.931 93.1328 286.924 92.525 285.216 91.3867C283.508 90.2484 282.174 88.6304 281.383 86.7362C280.592 84.842 280.378 82.7561 280.77 80.741C281.161 78.7258 282.139 76.8713 283.581 75.4107C284.328 74.6561 285.343 74.2285 286.404 74.2218C287.466 74.215 288.486 74.6296 289.242 75.3746L298.358 84.3742C299.112 85.1218 299.539 86.138 299.545 87.2C299.551 88.2619 299.136 89.2828 298.39 90.0389Z" fill="#3F3D56"/>
<path d="M329.41 116.172L319.36 106.246C318.701 105.597 317.812 105.236 316.886 105.241C315.961 105.247 315.076 105.62 314.425 106.277C313.611 107.1 312.967 108.075 312.53 109.146C312.092 110.218 311.871 111.365 311.877 112.523C311.884 113.68 312.118 114.825 312.568 115.892C313.017 116.958 313.672 117.926 314.496 118.739C315.319 119.553 316.295 120.196 317.367 120.632C318.439 121.068 319.587 121.288 320.744 121.28C321.902 121.272 323.046 121.037 324.112 120.586C325.178 120.136 326.145 119.479 326.958 118.655L329.41 116.172Z" fill="#BCC7FF"/>
<path d="M299.503 86.6341L289.453 76.7084C288.794 76.0589 287.904 75.6975 286.979 75.7032C286.054 75.7089 285.169 76.0814 284.518 76.739C283.704 77.5616 283.06 78.5366 282.623 79.6083C282.185 80.68 281.964 81.8273 281.97 82.9847C281.977 84.1421 282.211 85.2869 282.661 86.3536C283.11 87.4202 283.765 88.3879 284.588 89.2012C285.412 90.0146 286.388 90.6576 287.46 91.0936C288.532 91.5296 289.68 91.75 290.837 91.7421C291.994 91.7343 293.139 91.4984 294.205 91.048C295.271 90.5975 296.238 89.9414 297.051 89.117L299.503 86.6341Z" fill="#BCC7FF"/>
<path d="M318.367 122.354L318.127 122.987C316.998 122.558 315.903 122.129 314.844 121.697C296.076 114.039 287.117 105.076 281.123 88.0612L281.119 88.0572C280.835 87.2566 280.559 86.4372 280.291 85.5992L280.923 85.395C281.135 86.201 281.444 86.978 281.844 87.709C282.172 88.6417 282.51 89.5505 282.857 90.4352C288.49 104.795 296.797 113.002 312.722 119.932C313.523 120.28 314.343 120.626 315.184 120.969C316.16 121.605 317.236 122.073 318.367 122.354Z" fill="#3F3D56"/>
<path d="M289.636 93.2056L289.073 93.7754L309.866 114.312L310.428 113.742L289.636 93.2056Z" fill="#3F3D56"/>
<path d="M113.601 76.1893L113.612 63.0332L105.878 63.7243L108.608 72.0218L98.7005 87.0401C98.0809 87.1791 97.5153 87.4954 97.0724 87.9503C96.6295 88.4053 96.3286 88.9793 96.2063 89.6023C96.084 90.2254 96.1456 90.8705 96.3837 91.4592C96.6217 92.0478 97.0259 92.5544 97.5469 92.9173C98.0679 93.2802 98.6832 93.4837 99.3178 93.5029C99.9525 93.5221 100.579 93.3563 101.121 93.0256C101.663 92.6949 102.097 92.2136 102.37 91.6405C102.644 91.0674 102.744 90.4271 102.66 89.7978L113.601 76.1893Z" fill="#FFB6B6"/>
</g>
<defs>
<clipPath id="clip0_708_2760">
<rect width="358" height="179.463" fill="white"/>
</clipPath>
</defs>
</svg>
