<svg width="17" height="17" viewBox="0 0 17 17" fill="none" xmlns="http://www.w3.org/2000/svg">
<g clip-path="url(#clip0_797_2634)">
<path d="M8.83789 12.438V13.5923" stroke="#273A69" stroke-width="1.71429" stroke-linecap="round" stroke-linejoin="round"/>
<path d="M8.83789 6.71216V7.78644" stroke="#273A69" stroke-width="1.71429" stroke-linecap="round" stroke-linejoin="round"/>
<path d="M8.83792 16.4037C12.8379 16.4037 15.6951 14.9865 15.6951 11.8323C15.6951 8.40368 13.9808 6.11797 10.5522 4.40368L11.9008 2.66654C11.9693 2.55256 12.0064 2.4225 12.0085 2.28953C12.0105 2.15657 11.9774 2.02542 11.9124 1.90939C11.8474 1.79336 11.7529 1.69658 11.6385 1.62884C11.5241 1.5611 11.3938 1.52482 11.2608 1.52368H6.41506C6.28208 1.52482 6.15177 1.5611 6.03733 1.62884C5.92289 1.69658 5.8284 1.79336 5.76342 1.90939C5.69845 2.02542 5.6653 2.15657 5.66734 2.28953C5.66939 2.4225 5.70655 2.55256 5.77506 2.66654L7.12363 4.41511C3.69506 6.14082 1.98077 8.42654 1.98077 11.8551C1.98077 14.9865 4.83792 16.4037 8.83792 16.4037Z" stroke="#273A69" stroke-width="1.71429" stroke-linecap="round" stroke-linejoin="round"/>
<path d="M7.69505 11.9122C7.8345 12.0777 8.01 12.2091 8.20811 12.2962C8.40622 12.3834 8.62166 12.424 8.83791 12.415C9.16843 12.4375 9.49481 12.331 9.74844 12.1179C10.0021 11.9048 10.1632 11.6016 10.1979 11.2722C10.1632 10.9427 10.0021 10.6395 9.74844 10.4264C9.49481 10.2133 9.16843 10.1068 8.83791 10.1293C8.50738 10.1518 8.181 10.0453 7.92737 9.8322C7.67375 9.61907 7.51263 9.3159 7.47791 8.98644C7.50984 8.65582 7.67018 8.35092 7.92447 8.13723C8.17876 7.92354 8.50673 7.81811 8.83791 7.84358C9.05035 7.83059 9.26303 7.86484 9.46064 7.94389C9.65825 8.02294 9.83589 8.14481 9.98076 8.30073" stroke="#273A69" stroke-width="1.71429" stroke-linecap="round" stroke-linejoin="round"/>
</g>
<defs>
<clipPath id="clip0_797_2634">
<rect width="16" height="16" fill="white" transform="translate(0.837891 0.986572)"/>
</clipPath>
</defs>
</svg>
