<svg width="17" height="17" viewBox="0 0 17 17" fill="none" xmlns="http://www.w3.org/2000/svg">
<g clip-path="url(#clip0_797_2623)">
<path d="M8.78752 15.7575C7.31829 15.7575 5.88205 15.3219 4.66043 14.5056C3.43881 13.6893 2.48667 12.5292 1.92442 11.1718C1.36217 9.81436 1.21506 8.32073 1.50169 6.87972C1.78832 5.43872 2.49582 4.11508 3.53473 3.07617C4.57363 2.03727 5.89728 1.32976 7.33828 1.04313C8.77928 0.756499 10.2729 0.903609 11.6303 1.46586C12.9877 2.02811 14.1479 2.98025 14.9642 4.20187C15.7804 5.42349 16.2161 6.85973 16.2161 8.32897C16.2184 10.457 15.3997 12.5039 13.9304 14.0433" stroke="#273A69" stroke-width="1.71429" stroke-linecap="round" stroke-linejoin="round"/>
<path d="M16.2161 13.4719L13.9304 14.0433L13.3589 11.7576" stroke="#273A69" stroke-width="1.71429" stroke-linecap="round" stroke-linejoin="round"/>
<path d="M11.0732 10.6147L8.78752 7.75757H5.35895" stroke="#273A69" stroke-width="1.71429" stroke-linecap="round" stroke-linejoin="round"/>
</g>
<defs>
<clipPath id="clip0_797_2623">
<rect width="16" height="16" fill="white" transform="translate(0.787537 0.328857)"/>
</clipPath>
</defs>
</svg>
