<svg width="16" height="16" viewBox="0 0 16 16" fill="none" xmlns="http://www.w3.org/2000/svg">
<g clip-path="url(#clip0_797_2628)">
<path d="M3.99996 8.57157C4.31555 8.57157 4.57139 8.31573 4.57139 8.00014C4.57139 7.68455 4.31555 7.42871 3.99996 7.42871C3.68437 7.42871 3.42853 7.68455 3.42853 8.00014C3.42853 8.31573 3.68437 8.57157 3.99996 8.57157Z" stroke="#273A69" stroke-width="1.71429" stroke-linecap="round" stroke-linejoin="round"/>
<path d="M7.71425 8.57157C8.02984 8.57157 8.28568 8.31573 8.28568 8.00014C8.28568 7.68455 8.02984 7.42871 7.71425 7.42871C7.39866 7.42871 7.14282 7.68455 7.14282 8.00014C7.14282 8.31573 7.39866 8.57157 7.71425 8.57157Z" stroke="#273A69" stroke-width="1.71429" stroke-linecap="round" stroke-linejoin="round"/>
<path d="M11.4285 8.57157C11.7441 8.57157 12 8.31573 12 8.00014C12 7.68455 11.7441 7.42871 11.4285 7.42871C11.113 7.42871 10.8571 7.68455 10.8571 8.00014C10.8571 8.31573 11.113 8.57157 11.4285 8.57157Z" stroke="#273A69" stroke-width="1.71429" stroke-linecap="round" stroke-linejoin="round"/>
<path d="M7.99998 0.571534C6.65626 0.571953 5.33781 0.936836 4.18506 1.62732C3.03231 2.31781 2.08844 3.30803 1.45397 4.49254C0.819495 5.67704 0.518189 7.01145 0.582142 8.35365C0.646094 9.69586 1.07291 10.9956 1.81713 12.1144L0.571411 15.4287L4.74284 14.6744C5.74731 15.1652 6.84961 15.423 7.96758 15.4286C9.08555 15.4341 10.1904 15.1872 11.1996 14.7064C12.2089 14.2255 13.0966 13.523 13.7966 12.6513C14.4966 11.7796 14.9908 10.7611 15.2424 9.67178C15.494 8.58247 15.4965 7.45042 15.2496 6.36002C15.0028 5.26963 14.513 4.249 13.8169 3.37424C13.1207 2.49947 12.236 1.79312 11.2289 1.30784C10.2217 0.822564 9.11797 0.570875 7.99998 0.571534Z" stroke="#273A69" stroke-width="1.71429" stroke-linecap="round" stroke-linejoin="round"/>
</g>
<defs>
<clipPath id="clip0_797_2628">
<rect width="16" height="16" fill="white"/>
</clipPath>
</defs>
</svg>
