<svg width="16" height="16" viewBox="0 0 16 16" fill="none" xmlns="http://www.w3.org/2000/svg">
<g clip-path="url(#clip0_797_2617)">
<path d="M6.85712 15.1428H9.14283" stroke="#273A69" stroke-width="1.71429" stroke-linecap="round" stroke-linejoin="round"/>
<path d="M12.5714 6.57143C12.5714 5.35901 12.0898 4.19625 11.2325 3.33894C10.3752 2.48163 9.21243 2 8.00001 2C6.78759 2 5.62483 2.48163 4.76752 3.33894C3.91021 4.19625 3.42858 5.35901 3.42858 6.57143V10.5714C3.42858 11.0261 3.24797 11.4621 2.92648 11.7836C2.60499 12.1051 2.16895 12.2857 1.71429 12.2857H14.2857C13.8311 12.2857 13.395 12.1051 13.0735 11.7836C12.752 11.4621 12.5714 11.0261 12.5714 10.5714V6.57143Z" stroke="#273A69" stroke-width="1.71429" stroke-linecap="round" stroke-linejoin="round"/>
<path d="M0.571411 6.42289C0.572027 5.33506 0.83145 4.26297 1.32825 3.2952C1.82505 2.32743 2.54498 1.49175 3.42855 0.857178" stroke="#273A69" stroke-width="1.71429" stroke-linecap="round" stroke-linejoin="round"/>
<path d="M15.4286 6.42289C15.4279 5.33506 15.1685 4.26297 14.6717 3.2952C14.1749 2.32743 13.455 1.49175 12.5714 0.857178" stroke="#273A69" stroke-width="1.71429" stroke-linecap="round" stroke-linejoin="round"/>
</g>
<defs>
<clipPath id="clip0_797_2617">
<rect width="16" height="16" fill="white"/>
</clipPath>
</defs>
</svg>
