<svg width="17" height="17" viewBox="0 0 17 17" fill="none" xmlns="http://www.w3.org/2000/svg">
<g clip-path="url(#clip0_798_2641)">
<path d="M9.90698 15.9859L9.2327 16.2488C8.98953 16.3399 8.72158 16.3399 8.47841 16.2488L7.80413 15.9859C6.09622 15.3163 4.62922 14.1485 3.59384 12.6341C2.55845 11.1198 2.00256 9.32896 1.99841 7.49449V4.31735C3.29269 4.50181 4.61276 4.33377 5.81955 3.83094C7.02634 3.32811 8.07518 2.5091 8.85556 1.46021C10.2841 3.54021 12.6498 4.52306 15.7127 4.31735V7.49449C15.7086 9.32896 15.1527 11.1198 14.1173 12.6341C13.0819 14.1485 11.6149 15.3163 9.90698 15.9859Z" stroke="#273A69" stroke-width="1.71429" stroke-linecap="round" stroke-linejoin="round"/>
</g>
<defs>
<clipPath id="clip0_798_2641">
<rect width="16" height="16" fill="white" transform="translate(0.85553 0.888672)"/>
</clipPath>
</defs>
</svg>
