<svg width="13" height="17" viewBox="0 0 13 17" fill="none" xmlns="http://www.w3.org/2000/svg">
<path d="M11.2991 5.99833C11.2991 8.84404 6.15622 15.7126 6.15622 15.7126C6.15622 15.7126 1.01337 8.84404 1.01337 5.99833C1.01337 4.63436 1.5552 3.32625 2.51967 2.36178C3.48415 1.3973 4.79225 0.855469 6.15622 0.855469C7.52019 0.855469 8.8283 1.3973 9.79277 2.36178C10.7572 3.32625 11.2991 4.63436 11.2991 5.99833Z" stroke="#273A69" stroke-width="1.71429" stroke-linecap="round" stroke-linejoin="round"/>
<path d="M6.15624 7.71251C7.10302 7.71251 7.87053 6.945 7.87053 5.99822C7.87053 5.05145 7.10302 4.28394 6.15624 4.28394C5.20947 4.28394 4.44196 5.05145 4.44196 5.99822C4.44196 6.945 5.20947 7.71251 6.15624 7.71251Z" stroke="#273A69" stroke-width="1.71429" stroke-linecap="round" stroke-linejoin="round"/>
</svg>
