<svg width="20" height="20" viewBox="0 0 20 20" fill="none" xmlns="http://www.w3.org/2000/svg">
<path fill-rule="evenodd" clip-rule="evenodd" d="M10.8276 4.90265C10.7794 4.4882 10.4272 4.1665 9.99984 4.1665C9.5396 4.1665 9.1665 4.5396 9.1665 4.99984V9.16647H4.99984L4.90265 9.17207C4.4882 9.22021 4.1665 9.57244 4.1665 9.9998C4.1665 10.46 4.5396 10.8331 4.99984 10.8331H9.1665V14.9998L9.17211 15.097C9.22025 15.5115 9.57247 15.8332 9.99984 15.8332C10.4601 15.8332 10.8332 15.4601 10.8332 14.9998V10.8331H14.9998L15.097 10.8275C15.5115 10.7794 15.8332 10.4272 15.8332 9.9998C15.8332 9.53956 15.4601 9.16647 14.9998 9.16647H10.8332V4.99984L10.8276 4.90265Z" fill="black"/>
</svg>
