<svg width="24" height="20" viewBox="0 0 24 20" fill="none" xmlns="http://www.w3.org/2000/svg">
<path fill-rule="evenodd" clip-rule="evenodd" d="M23.0459 11.0987C23.5836 11.0304 24 10.5644 24 10.0002C24 9.38908 23.5113 8.89309 22.9091 8.89309L3.73236 8.89309L10.6604 1.89155L10.7584 1.77847C11.0851 1.3455 11.0526 0.72315 10.6633 0.325317C10.2385 -0.107204 9.54764 -0.108679 9.12145 0.322367L0.321455 9.21637L0.224411 9.32774C0.0767677 9.52251 0 9.76034 0 10.0002C0 10.1434 0.0276364 10.2866 0.0829091 10.4224C0.251636 10.8372 0.648727 11.1074 1.09091 11.1074L22.9091 11.1074L23.0459 11.0987ZM10.6634 19.6747C11.0881 19.2407 11.0881 18.5395 10.6605 18.1085L5.80665 13.2031L5.69459 13.104C5.26595 12.7738 4.65417 12.8082 4.26483 13.206C4.05247 13.423 3.94629 13.705 3.94629 13.9869C3.94629 14.2719 4.05247 14.5553 4.26774 14.7723L9.12011 19.6776L9.23219 19.7764C9.66105 20.1054 10.274 20.0712 10.6634 19.6747Z" fill="white"/>
</svg>
