<svg width="16" height="16" viewBox="0 0 16 16" fill="none" xmlns="http://www.w3.org/2000/svg">
<path d="M10.5275 1.33411C10.78 1.3499 10.9748 1.56632 10.9681 1.82355V2.51347C12.9739 2.70807 14 3.81667 14 5.8098V11.3233C14 13.5405 12.7362 14.6668 10.2493 14.6668H5.75072C3.26377 14.6668 2 13.5405 2 11.3233V5.8098C2 4.48301 2.45217 3.53363 3.37971 2.97932L3.44477 2.94224C3.57923 2.87949 3.73693 2.88524 3.86801 2.96134C4.02094 3.05012 4.11124 3.21934 4.10113 3.39815C4.09101 3.57696 3.98222 3.73453 3.82029 3.80488C3.2058 4.17048 2.91594 4.80734 2.91594 5.8098V5.9867H11.3739C11.6268 5.9867 11.8319 6.19527 11.8319 6.45255C11.8319 6.70983 11.6268 6.9184 11.3739 6.9184H2.91594V11.3233C2.91594 13.0157 3.73913 13.7174 5.75072 13.7292H10.2493C12.2319 13.7292 13.0783 13.0098 13.0783 11.3174V5.8039C13.0783 4.3297 12.4348 3.61618 10.9681 3.44517V3.89333C10.9343 4.1322 10.7287 4.30659 10.4916 4.29749C10.2545 4.28839 10.0624 4.09874 10.0464 3.85795V1.78227L10.0549 1.70853C10.0737 1.61191 10.1224 1.52316 10.1948 1.45577C10.2852 1.37154 10.4051 1.32771 10.5275 1.33411ZM10.7913 10.7982L10.8651 10.8029C10.9917 10.8188 11.1104 10.8768 11.2021 10.9691C11.312 11.0799 11.3739 11.2308 11.3739 11.3882C11.3739 11.7139 11.1144 11.9779 10.7942 11.9779C10.474 11.9779 10.2145 11.7139 10.2145 11.3882C10.2145 11.0625 10.474 10.7985 10.7942 10.7985L10.7913 10.7982ZM8.01159 10.7985L8.08431 10.8031C8.37015 10.8395 8.5913 11.0876 8.5913 11.3882C8.5913 11.7139 8.33176 11.9779 8.01159 11.9779C7.69143 11.9779 7.43188 11.7139 7.43188 11.3882C7.43188 11.0625 7.69143 10.7985 8.01159 10.7985ZM5.232 10.7982L5.30572 10.8029C5.4323 10.8188 5.55101 10.8768 5.64266 10.9691C5.75263 11.0799 5.81449 11.2308 5.81449 11.3882C5.81449 11.7139 5.55495 11.9779 5.23478 11.9779C4.91462 11.9779 4.65507 11.7139 4.65507 11.3882C4.65507 11.0625 4.91462 10.7985 5.23478 10.7985L5.232 10.7982ZM10.7913 8.41016L10.8651 8.4147C10.9917 8.43057 11.1104 8.48862 11.2021 8.58091C11.312 8.69167 11.3739 8.84256 11.3739 8.99998C11.3739 9.32565 11.1144 9.58966 10.7942 9.58966C10.474 9.58966 10.2145 9.32565 10.2145 8.99998C10.2145 8.67431 10.474 8.4103 10.7942 8.4103L10.7913 8.41016ZM8.01159 8.4103L8.08431 8.41489C8.37015 8.45128 8.5913 8.69936 8.5913 8.99998C8.5913 9.32565 8.33176 9.58966 8.01159 9.58966C7.69143 9.58966 7.43188 9.32565 7.43188 8.99998C7.43188 8.67431 7.69143 8.4103 8.01159 8.4103ZM5.232 8.41016L5.30572 8.4147C5.4323 8.43057 5.55101 8.48862 5.64266 8.58091C5.75263 8.69167 5.81449 8.84256 5.81449 8.99998C5.81449 9.32565 5.55495 9.58966 5.23478 9.58966C4.91462 9.58966 4.65507 9.32565 4.65507 8.99998C4.65507 8.67431 4.91462 8.4103 5.23478 8.4103L5.232 8.41016ZM5.49275 1.40446C5.72885 1.40446 5.92727 1.58489 5.95362 1.82355V2.4663H8.57391C8.82684 2.4663 9.03188 2.67487 9.03188 2.93215C9.03188 3.18943 8.82684 3.398 8.57391 3.398H5.94203V3.86385C5.94204 3.98843 5.89299 4.10782 5.80585 4.19536C5.71871 4.28289 5.60072 4.33127 5.47826 4.3297L5.41129 4.32301C5.19309 4.28466 5.02892 4.0898 5.03184 3.85795V1.82355L5.04479 1.75382C5.0983 1.55061 5.28026 1.40446 5.49275 1.40446Z" fill="black"/>
</svg>
