<svg width="24" height="24" viewBox="0 0 24 24" fill="none" xmlns="http://www.w3.org/2000/svg">
<path fill-rule="evenodd" clip-rule="evenodd" d="M17.6382 6.35595C17.5562 6.35595 17.4812 6.308 17.4102 6.15915C17.1262 5.55679 16.7782 4.82057 16.5692 4.409C16.1112 3.50795 15.3252 3.00748 14.3482 3.00049H9.64624C8.67624 3.00748 7.88924 3.50795 7.43124 4.41C7.22824 4.80958 6.89324 5.51883 6.61424 6.11121L6.55524 6.23507C6.52024 6.309 6.44624 6.35595 6.36324 6.35595C3.95724 6.35595 2.00024 8.31088 2.00024 10.7133V16.6431C2.00024 19.0456 3.95724 21.0005 6.36324 21.0005H7.10824C7.52224 21.0005 7.85824 20.6648 7.85824 20.2513C7.85824 19.8377 7.52224 19.5021 7.10824 19.5021H6.36324C4.78424 19.5021 3.50024 18.2194 3.50024 16.6431V10.7133C3.50024 9.13701 4.78424 7.85437 6.36324 7.85437C7.02224 7.85437 7.63024 7.46977 7.91124 6.8754L7.97024 6.75053C8.24324 6.17114 8.57124 5.47787 8.76924 5.08729C8.97424 4.68371 9.24924 4.5019 9.65324 4.49891H14.3422C14.7522 4.5019 15.0262 4.68371 15.2312 5.08629C15.4352 5.48986 15.7762 6.2101 16.0902 6.8754C16.3712 7.46977 16.9792 7.85437 17.6382 7.85437C19.2162 7.85437 20.5002 9.13701 20.5002 10.7133V16.6431C20.5002 18.2194 19.2162 19.5021 17.6382 19.5021H10.5802C10.1662 19.5021 9.83024 19.8377 9.83024 20.2513C9.83024 20.6648 10.1662 21.0005 10.5802 21.0005H17.6382C20.0432 21.0005 22.0002 19.0456 22.0002 16.6431V10.7133C22.0002 8.31088 20.0432 6.35595 17.6382 6.35595ZM12.0008 17.2547C13.0518 17.2547 14.0418 16.8412 14.7888 16.0899C15.5318 15.3427 15.9378 14.3598 15.9288 13.3279C15.9298 12.281 15.5198 11.293 14.7748 10.5488C14.0308 9.80558 13.0458 9.39701 12.0008 9.39701H11.9988C11.7108 9.39701 11.4228 9.42798 11.1438 9.49191C10.7398 9.58082 10.4848 9.98239 10.5758 10.386C10.6658 10.7885 11.0658 11.0463 11.4708 10.9524C11.6438 10.9144 11.8208 10.8954 11.9998 10.8954H12.0008C12.6458 10.8954 13.2538 11.1492 13.7138 11.6087C14.1758 12.0702 14.4298 12.6795 14.4288 13.3329C14.4338 13.9682 14.1838 14.5715 13.7248 15.0341C13.2618 15.4996 12.6488 15.7563 12.0008 15.7563H11.9988C11.3508 15.7553 10.7418 15.5016 10.2828 15.0411C9.82275 14.5805 9.57075 13.9702 9.57175 13.3209C9.57175 13.0721 9.61075 12.8254 9.68675 12.5886C9.81175 12.1951 9.59375 11.7735 9.19875 11.6476C8.80175 11.5238 8.38175 11.7395 8.25675 12.1341C8.13475 12.5187 8.07175 12.9163 8.07175 13.3199C8.06975 14.3668 8.47775 15.3547 9.21975 16.0989C9.96175 16.8432 10.9478 17.2537 11.9968 17.2547H12.0008ZM17.9805 10.7527C17.9105 10.8226 17.8305 10.8825 17.7405 10.9225C17.6505 10.9625 17.5505 10.9735 17.4505 10.9735C17.2605 10.9735 17.0705 10.9025 16.9205 10.7527C16.7805 10.6128 16.7005 10.423 16.7005 10.2242C16.7005 10.1333 16.7205 10.0334 16.7605 9.94454C16.8005 9.85463 16.8605 9.76473 16.9205 9.6948C16.9905 9.63386 17.0805 9.57393 17.1705 9.53397C17.3505 9.46404 17.5605 9.46404 17.7405 9.53397C17.8305 9.57393 17.9205 9.63386 17.9805 9.6948C18.0505 9.76473 18.1105 9.85463 18.1505 9.94454C18.1905 10.0334 18.2105 10.1333 18.2105 10.2242C18.2105 10.423 18.1305 10.6128 17.9805 10.7527Z" fill="white"/>
</svg>
