<svg width="16" height="17" viewBox="0 0 16 17" fill="none" xmlns="http://www.w3.org/2000/svg">
<path d="M8.00004 14.8031C11.6819 14.8031 14.6667 11.8183 14.6667 8.13639C14.6667 4.45449 11.6819 1.46973 8.00004 1.46973C4.31814 1.46973 1.33337 4.45449 1.33337 8.13639C1.33337 11.8183 4.31814 14.8031 8.00004 14.8031Z" fill="#BCC7FF"/>
<path d="M7.33337 4.80314C7.33337 4.62633 7.40361 4.45676 7.52864 4.33174C7.65366 4.20671 7.82323 4.13647 8.00004 4.13647C8.17685 4.13647 8.34642 4.20671 8.47145 4.33174C8.59647 4.45676 8.66671 4.62633 8.66671 4.80314V6.98181L9.39871 6.55914C9.55175 6.47213 9.73299 6.44918 9.90288 6.49531C10.0728 6.54143 10.2175 6.65289 10.3056 6.80535C10.3936 6.9578 10.4177 7.13889 10.3727 7.30909C10.3277 7.47928 10.2172 7.62477 10.0654 7.71381L8.33337 8.71381C8.2316 8.76943 8.11724 8.79793 8.00127 8.79657C7.8853 8.79521 7.77163 8.76404 7.6712 8.70605C7.57076 8.64807 7.48693 8.56521 7.42776 8.46546C7.3686 8.36571 7.3361 8.25242 7.33337 8.13647V4.80314Z" fill="#6563FF"/>
</svg>
