<svg width="24" height="24" viewBox="0 0 24 24" fill="none" xmlns="http://www.w3.org/2000/svg">
<g clip-path="url(#clip0_448_1145)">
<path d="M12 24C5.4 24 0 18.6 0 12C0 5.4 5.4 0 12 0C18.6 0 24 5.4 24 12C24 18.6 18.6 24 12 24ZM12 2C6.5 2 2 6.5 2 12C2 17.5 6.5 22 12 22C17.5 22 22 17.5 22 12C22 6.5 17.5 2 12 2Z" fill="#6B7280"/>
<path d="M12 13C10.1 13 8.5 11.8 8.1 10.2C8 10 8 9.8 8 9.5C8 7.6 9.8 6 12 6C14.2 6 16 7.6 16 9.5C16 9.8 16 10 15.9 10.2C15.8 10.7 15.2 11.1 14.7 10.9C14.2 10.8 13.8 10.2 14 9.7V9.4C14 8.7 13.1 8 12 8C10.9 8 10 8.7 10 9.5V9.8C10.2 10.5 11 11 12 11C12.6 11 13 11.4 13 12C13 12.6 12.6 13 12 13Z" fill="#6B7280"/>
<path d="M12 18.0001C9.8 18.0001 8 16.4001 8 14.5001C8 14.2001 8 14.0001 8.1 13.8001C8.2 13.3001 8.8 12.9001 9.3 13.1001C9.8 13.2001 10.2 13.8001 10 14.3001V14.6001C10 15.4001 10.9 16.1001 12 16.1001C13.1 16.1001 14 15.4001 14 14.6001V14.3001C13.8 13.6001 13 13.1001 12 13.1001C11.4 13.1001 11 12.7001 11 12.1001C11 11.5001 11.4 11.1001 12 11.1001C13.9 11.1001 15.5 12.3001 15.9 13.9001C16 14.0001 16 14.2001 16 14.5001C16 16.4001 14.2 18.0001 12 18.0001Z" fill="#6B7280"/>
<path d="M12 20C11.4 20 11 19.6 11 19V17C11 16.4 11.4 16 12 16C12.6 16 13 16.4 13 17V19C13 19.6 12.6 20 12 20ZM12 8C11.4 8 11 7.6 11 7V5C11 4.4 11.4 4 12 4C12.6 4 13 4.4 13 5V7C13 7.6 12.6 8 12 8ZM15 11C14.7 11 14.5 10.9 14.3 10.7C14.1 10.5 14 10.3 14 10C14 9.7 14.1 9.5 14.3 9.3C14.7 8.9 15.3 8.9 15.7 9.3C15.9 9.5 16 9.7 16 10C16 10.3 15.9 10.5 15.7 10.7C15.5 10.9 15.3 11 15 11Z" fill="#6B7280"/>
</g>
<defs>
<clipPath id="clip0_448_1145">
<rect width="24" height="24" fill="white"/>
</clipPath>
</defs>
</svg>
