<svg width="12" height="12" viewBox="0 0 12 12" fill="none" xmlns="http://www.w3.org/2000/svg">
<path fill-rule="evenodd" clip-rule="evenodd" d="M8.81113 2.44394C9.12641 2.69384 9.34197 3.02249 9.41728 3.37003C9.50143 3.758 9.40845 4.15174 9.15602 4.47724L4.8506 10.0296C4.63297 10.3104 4.30574 10.4742 3.95202 10.4789L2.29094 10.4999H2.28626C2.10499 10.4999 1.9476 10.3739 1.90657 10.1955L1.53051 8.56063C1.45052 8.21256 1.52948 7.85189 1.74763 7.57102L2.31275 6.8418C2.4452 6.67066 2.69036 6.64021 2.85969 6.77513C3.02902 6.909 3.05863 7.1568 2.92566 7.32795L2.36054 8.05716C2.28886 8.14956 2.26289 8.26768 2.28938 8.38213L2.59427 9.70826L3.94215 9.69146C4.05798 9.68989 4.1655 9.63634 4.23718 9.54394L8.54259 3.99162C8.65271 3.84987 8.69062 3.69763 8.65634 3.53803C8.61946 3.36951 8.50415 3.20098 8.33067 3.06396L7.60869 2.49119C7.32924 2.2707 6.93501 2.1573 6.66595 2.50537L6.09719 3.23826L6.99993 3.9701C7.1677 4.10554 7.19471 4.35387 7.06019 4.52291C6.98331 4.62056 6.87008 4.67096 6.75581 4.67096C6.67063 4.67096 6.5844 4.64261 6.51272 4.58434L5.61674 3.85827L4.14368 5.75822C4.01071 5.92937 3.76607 5.96034 3.59622 5.82489C3.42741 5.69102 3.3978 5.44322 3.53025 5.27208L6.05252 2.01923C6.54181 1.38714 7.39884 1.32519 8.08914 1.8717L8.81113 2.44394ZM6.79809 9.71251H10.1104C10.3254 9.71251 10.4999 9.88891 10.4999 10.1063C10.4999 10.3236 10.3254 10.5 10.1104 10.5H6.79809C6.58253 10.5 6.40853 10.3236 6.40853 10.1063C6.40853 9.88891 6.58253 9.71251 6.79809 9.71251Z" fill="white"/>
</svg>
