<svg width="24" height="24" viewBox="0 0 24 24" fill="none" xmlns="http://www.w3.org/2000/svg">
<g clip-path="url(#clip0_402_1364)">
<path d="M5.54676 14.4182L4.73983 17.4306L1.79054 17.493C0.909128 15.8582 0.40918 13.9878 0.40918 12.0001C0.40918 10.078 0.876619 8.26551 1.70519 6.66954H1.70582L4.33152 7.15092L5.48174 9.76087C5.241 10.4627 5.10979 11.2161 5.10979 12.0001C5.10988 12.8509 5.264 13.6661 5.54676 14.4182Z" fill="#FBBB00"/>
<path d="M23.3884 9.83444C23.5216 10.5356 23.591 11.2597 23.591 11.9998C23.591 12.8296 23.5037 13.6391 23.3375 14.4199C22.7733 17.0769 21.2989 19.3969 19.2565 21.0388L19.2559 21.0381L15.9487 20.8694L15.4806 17.9474C16.8358 17.1527 17.8949 15.9088 18.4528 14.4199H12.2549V9.83444H18.5433H23.3884Z" fill="#518EF8"/>
<path d="M19.2554 21.0384L19.256 21.0391C17.2697 22.6357 14.7464 23.591 11.9996 23.591C7.5855 23.591 3.74777 21.1238 1.79004 17.493L5.54626 14.4182C6.52511 17.0306 9.04518 18.8903 11.9996 18.8903C13.2695 18.8903 14.4592 18.547 15.48 17.9477L19.2554 21.0384Z" fill="#28B446"/>
<path d="M19.3984 3.07753L15.6435 6.15166C14.5869 5.49125 13.338 5.10975 12 5.10975C8.97869 5.10975 6.41148 7.05471 5.48168 9.76078L1.70571 6.66945H1.70508C3.63415 2.95017 7.52027 0.409088 12 0.409088C14.8124 0.409088 17.391 1.41089 19.3984 3.07753Z" fill="#F14336"/>
</g>
<defs>
<clipPath id="clip0_402_1364">
<rect width="23.1818" height="23.1818" fill="white" transform="translate(0.40918 0.409088)"/>
</clipPath>
</defs>
</svg>
