<svg width="24" height="24" viewBox="0 0 24 24" fill="none" xmlns="http://www.w3.org/2000/svg">
<path d="M13.35 19.7399C14.9716 19.7398 16.557 19.2598 17.9064 18.3605C19.2558 17.4611 20.3089 16.1825 20.933 14.6858C21.5571 13.189 21.7243 11.5411 21.4137 9.94946C21.103 8.35785 20.3282 6.89377 19.187 5.74164C18.0458 4.5895 16.5892 3.80083 15.0006 3.47497C13.4121 3.1491 11.7626 3.30062 10.2599 3.91043C8.75732 4.52024 7.46875 5.56107 6.55654 6.90183C5.64433 8.24258 5.14928 9.8233 5.13374 11.4449" stroke="#6B7280" stroke-width="1.125"/>
<path d="M2.17123 7.89746L5.12623 11.7562L8.98498 8.80496" stroke="#6B7280" stroke-width="1.125"/>
<path d="M13.1062 5.26489V12.1311L16.2225 14.5199" stroke="#6B7280" stroke-width="1.125"/>
</svg>
