<svg width="22" height="24" viewBox="0 0 22 24" fill="none" xmlns="http://www.w3.org/2000/svg">
<g id="Iconly/Broken/Info Circle">
<g id="Info Circle">
<path id="Info Circle_2" fill-rule="evenodd" clip-rule="evenodd" d="M1.83324 12C1.83324 6.485 5.9454 2 10.9999 2C16.0544 2 20.1666 6.485 20.1666 12C20.1666 17.514 16.0544 22 10.9999 22C8.13349 22 5.48432 20.577 3.73349 18.098C3.5089 17.779 3.56299 17.322 3.8554 17.078C4.14599 16.832 4.56399 16.893 4.78949 17.21C6.2864 19.33 8.54965 20.546 10.9999 20.546C15.3192 20.546 18.8337 16.713 18.8337 12C18.8337 7.288 15.3192 3.454 10.9999 3.454C6.68057 3.454 3.16607 7.288 3.16607 12C3.16607 12.438 3.19632 12.873 3.2559 13.299C3.3109 13.695 3.06157 14.066 2.69765 14.127C2.3319 14.193 1.99365 13.916 1.93865 13.519C1.86899 13.021 1.83324 12.51 1.83324 12ZM10.9999 7.4541C10.6204 7.4541 10.3124 7.7901 10.3124 8.2041V12.6241C10.3124 13.0381 10.6204 13.3741 10.9999 13.3741C11.3794 13.3741 11.6874 13.0381 11.6874 12.6241V8.2041C11.6874 7.7901 11.3794 7.4541 10.9999 7.4541ZM11.0093 15.0459H11.0001C10.6206 15.0459 10.3172 15.3819 10.3172 15.7959C10.3172 16.2099 10.6298 16.5459 11.0093 16.5459C11.3888 16.5459 11.6968 16.2099 11.6968 15.7959C11.6968 15.3819 11.3888 15.0459 11.0093 15.0459Z" fill="#BCC7FF"/>
</g>
</g>
</svg>
