<svg width="24" height="24" viewBox="0 0 24 24" fill="none" xmlns="http://www.w3.org/2000/svg">
<path d="M19.0884 6.57595C19.0116 6.28771 18.8554 5.98075 18.7399 5.71195C17.3578 2.39035 14.3378 1.19995 11.8994 1.19995C8.6352 1.19995 5.04 3.38875 4.56 7.90051V8.82235C4.56 8.86075 4.5732 9.20635 4.59216 9.37915C4.8612 11.5293 6.55776 13.8144 7.82496 15.9645C9.18816 18.2683 10.6027 20.5344 12.0046 22.7995C12.8686 21.3213 13.7297 19.8237 14.5742 18.3837C14.8044 17.9611 15.0713 17.5387 15.3017 17.1355C15.4553 16.8669 15.7486 16.5984 15.8827 16.3485C17.2457 13.8532 19.44 11.3376 19.44 8.86075V7.84315C19.44 7.57459 19.1071 6.63379 19.0884 6.57595ZM11.9592 11.2032C10.9997 11.2032 9.94944 10.7234 9.43104 9.39835C9.35376 9.18739 9.36 8.76475 9.36 8.72611V8.13091C9.36 6.44179 10.7942 5.67355 12.042 5.67355C13.578 5.67355 14.7662 6.90259 14.7662 8.43859C14.7662 9.97459 13.4952 11.2032 11.9592 11.2032Z" fill="#6B7280"/>
</svg>
