<svg width="49" height="48" viewBox="0 0 49 48" fill="none" xmlns="http://www.w3.org/2000/svg">
<path d="M38.6768 13.1519C38.5232 12.5754 38.2107 11.9615 37.9798 11.4239C35.2155 4.7807 29.1757 2.3999 24.2989 2.3999C17.7704 2.3999 10.58 6.7775 9.62 15.801V17.6447C9.62 17.7215 9.6464 18.4127 9.68432 18.7583C10.2224 23.0586 13.6155 27.6287 16.1499 31.929C18.8763 36.5365 21.7054 41.0687 24.5091 45.5989C26.2371 42.6426 27.9594 39.6474 29.6485 36.7674C30.1088 35.9221 30.6426 35.0773 31.1034 34.2709C31.4106 33.7338 31.9971 33.1967 32.2654 32.697C34.9914 27.7065 39.38 22.6751 39.38 17.7215V15.6863C39.38 15.1492 38.7142 13.2676 38.6768 13.1519ZM24.4184 22.4063C22.4994 22.4063 20.3989 21.4468 19.3621 18.7967C19.2075 18.3748 19.22 17.5295 19.22 17.4522V16.2618C19.22 12.8836 22.0885 11.3471 24.584 11.3471C27.656 11.3471 30.0325 13.8052 30.0325 16.8772C30.0325 19.9492 27.4904 22.4063 24.4184 22.4063Z" fill="#BCC7FF"/>
</svg>
