<svg width="12" height="14" viewBox="0 0 12 14" fill="none" xmlns="http://www.w3.org/2000/svg">
<path fill-rule="evenodd" clip-rule="evenodd" d="M6 0.333252H6.02224C9.14649 0.345529 11.6789 2.89457 11.6666 6.0148V6.07677C11.6245 8.30659 10.2839 10.157 9.16698 11.3163C8.84911 11.6478 8.51075 11.9659 8.16186 12.2629C7.95287 12.4412 7.6391 12.4166 7.46056 12.2079C7.28201 11.9986 7.30718 11.6852 7.51617 11.5069C7.83931 11.2316 8.15366 10.9357 8.44929 10.6276C9.44329 9.59631 10.6352 7.96575 10.6714 6.05865C10.6814 3.43887 8.59447 1.33708 6.01814 1.32656H6C3.43245 1.32656 1.3385 3.40788 1.32855 5.97387C1.37245 7.24138 1.80096 8.44632 2.56841 9.45717C3.46407 10.6498 4.82277 11.9127 6.11415 12.7534C6.34479 12.903 6.40977 13.2106 6.25933 13.4409C6.16449 13.5871 6.00468 13.6666 5.84194 13.6666C5.74886 13.6666 5.6552 13.6409 5.5709 13.5859C4.1882 12.6861 2.73291 11.3333 1.77345 10.0558C0.88306 8.88246 0.384889 7.48225 0.333374 6.00837C0.345667 2.85715 2.88569 0.333252 6 0.333252ZM4.83703 6.07601C4.83703 6.71503 5.35803 7.23594 5.99845 7.23594C6.63887 7.23594 7.15987 6.71503 7.15987 6.07601C7.15987 5.43642 6.63887 4.9155 5.99845 4.9155C5.7239 4.9155 5.50086 4.69334 5.50086 4.41914C5.50086 4.14436 5.7239 3.92219 5.99845 3.92219C7.18739 3.92219 8.15504 4.88802 8.15504 6.07601C8.15504 7.26342 7.18739 8.22925 5.99845 8.22925C4.80951 8.22925 3.84185 7.26342 3.84185 6.07601C3.84185 5.80123 4.06489 5.57907 4.33944 5.57907C4.61399 5.57907 4.83703 5.80123 4.83703 6.07601Z" fill="black"/>
</svg>
