<svg width="22" height="24" viewBox="0 0 22 24" fill="none" xmlns="http://www.w3.org/2000/svg">
<g id="Iconly/Broken/Login">
<g id="Login">
<path id="Login_2" fill-rule="evenodd" clip-rule="evenodd" d="M10.8357 2H15.4802C17.8111 2 19.7083 3.98998 19.7083 6.43696V14.0509C19.7083 14.4759 19.3786 14.8199 18.9746 14.8199C18.5686 14.8199 18.2399 14.4759 18.2399 14.0509V6.43696C18.2399 4.83997 17.0021 3.53998 15.4802 3.53998H10.8357C9.3082 3.53998 8.06559 4.84397 8.06559 6.44696V7.37795C8.06559 7.80294 7.73779 8.14694 7.33185 8.14694C6.92686 8.14694 6.5981 7.80294 6.5981 7.37795V6.44696C6.5981 3.99498 8.49917 2 10.8357 2ZM12.4585 10.3598C12.3217 10.5128 12.1411 10.5888 11.9595 10.5888C11.7817 10.5888 11.6029 10.5148 11.4651 10.3658L10.7938 9.63882C10.5183 9.33983 10.5156 8.85283 10.7883 8.54983C11.0601 8.24684 11.5044 8.24484 11.7817 8.54383L12.4539 9.27183C12.7294 9.56982 12.7321 10.0578 12.4585 10.3598ZM10.7903 15.4522C10.5167 15.1502 10.5176 14.6632 10.7922 14.3632L12.2516 12.7702H2.99404C2.60637 12.7702 2.29167 12.4252 2.29167 12.0002C2.29167 11.5752 2.60637 11.2292 2.99404 11.2292H13.9528C14.2374 11.2292 14.4937 11.4172 14.6023 11.7062C14.7108 11.9942 14.6497 12.3262 14.449 12.5462L11.7837 15.4542C11.6469 15.6032 11.4672 15.6782 11.2875 15.6782C11.1078 15.6782 10.9272 15.6032 10.7903 15.4522ZM18.9741 16.7831C18.5691 16.7831 18.2404 17.128 18.2404 17.553C18.2404 19.156 16.9978 20.46 15.4702 20.46H10.8257C9.30486 20.46 8.06607 19.16 8.06607 17.563V16.6221C8.06607 16.1971 7.73731 15.8521 7.33232 15.8521C6.92733 15.8521 6.59858 16.1971 6.59858 16.6221V17.563C6.59858 20.01 8.49488 22 10.8257 22H15.4702C17.8068 22 19.7079 20.005 19.7079 17.553C19.7079 17.128 19.3791 16.7831 18.9741 16.7831Z" fill="#BCC7FF"/>
</g>
</g>
</svg>
