<svg width="24" height="24" viewBox="0 0 24 24" fill="none" xmlns="http://www.w3.org/2000/svg">
<path d="M20.3478 6.13032H3.65218C2.71305 6.13032 1.95653 5.3738 1.95653 4.43467C1.95653 3.49554 2.71305 2.73901 3.65218 2.73901H20.3478C21.287 2.73901 22.0435 3.49554 22.0435 4.43467C22.0435 5.3738 21.287 6.13032 20.3478 6.13032ZM22.0435 11.9999C22.0435 11.0608 21.287 10.3042 20.3478 10.3042H3.65218C2.71305 10.3042 1.95653 11.0608 1.95653 11.9999C1.95653 12.939 2.71305 13.6955 3.65218 13.6955H20.3478C21.287 13.6955 22.0435 12.939 22.0435 11.9999ZM22.0435 19.5651C22.0435 18.626 21.287 17.8694 20.3478 17.8694H3.65218C2.71305 17.8694 1.95653 18.626 1.95653 19.5651C1.95653 20.5042 2.71305 21.2608 3.65218 21.2608H20.3478C21.287 21.2608 22.0435 20.5042 22.0435 19.5651Z" fill="#6B7280"/>
</svg>
