<svg width="17" height="17" viewBox="0 0 17 17" fill="none" xmlns="http://www.w3.org/2000/svg">
<g clip-path="url(#clip0_443_1515)">
<path d="M14.9168 2.53822L2.45459 4.94775L3.83377 12.0809L16.2959 9.67134L14.9168 2.53822Z" fill="#BCC7FF"/>
<path d="M14.1302 4.49108L1.50537 5.8042L2.25698 13.0304L14.8818 11.7173L14.1302 4.49108Z" fill="#BCC7FF"/>
<path d="M13.397 6.46924H0.703979V13.7345H13.397V6.46924Z" fill="#BCC7FF"/>
<path d="M12.2286 11.6882C11.9587 11.6889 11.7 11.7965 11.5094 11.9876C11.3188 12.1787 11.2117 12.4376 11.2117 12.7075H2.89129C2.89129 12.5736 2.86492 12.441 2.81367 12.3174C2.76243 12.1937 2.68732 12.0813 2.59264 11.9866C2.49796 11.892 2.38556 11.8169 2.26186 11.7657C2.13816 11.7145 2.00558 11.6882 1.8717 11.6882V8.51592C2.0056 8.51592 2.13818 8.48955 2.26188 8.43831C2.38558 8.38707 2.49798 8.31197 2.59266 8.21729C2.68734 8.12262 2.76244 8.01022 2.81368 7.88652C2.86492 7.76281 2.89129 7.63023 2.89129 7.49634H11.2117C11.2116 7.76631 11.3186 8.02529 11.5093 8.21644C11.6999 8.40759 11.9586 8.5153 12.2286 8.51592V11.6882Z" fill="#BCC7FF"/>
<path d="M7.05062 11.6313C7.89527 11.6313 8.58 10.9465 8.58 10.1019C8.58 9.25724 7.89527 8.57251 7.05062 8.57251C6.20597 8.57251 5.52124 9.25724 5.52124 10.1019C5.52124 10.9465 6.20597 11.6313 7.05062 11.6313Z" fill="#BCC7FF"/>
<path d="M14.3796 3.31343L15.6338 9.79974L16.2961 9.67161L14.9169 2.53857L2.45471 4.94823L2.57979 5.59496L14.3796 3.31343Z" fill="#BCC7FF"/>
<path d="M13.5928 5.26631L14.2704 11.7811L14.8816 11.7177L14.1301 4.49146L1.50525 5.80458L1.57914 6.51605L13.5928 5.26631Z" fill="#BCC7FF"/>
<path d="M0.703979 6.46924V7.15732H12.7031V13.7345H13.397V6.46924H0.703979Z" fill="#BCC7FF"/>
<path d="M2.15067 8.47217C2.06018 8.4997 1.96628 8.51442 1.8717 8.51589V8.92739C2.00358 8.8032 2.09988 8.64605 2.15067 8.47217ZM10.7873 12.7075H11.2117C11.2131 12.6098 11.2286 12.5129 11.2578 12.4197C11.0774 12.4702 10.9145 12.5699 10.7873 12.7075Z" fill="#BCC7FF"/>
<path d="M11.2117 7.49634H2.89128C2.89083 7.75168 2.79398 7.99743 2.62012 8.18442H10.5178C10.5178 8.3183 10.5442 8.45087 10.5955 8.57455C10.6467 8.69823 10.7218 8.81061 10.8165 8.90526C10.9112 8.99991 11.0236 9.07498 11.1473 9.12618C11.271 9.17739 11.4036 9.20372 11.5374 9.20367V11.9645C11.7244 11.788 11.9715 11.6893 12.2286 11.6882V8.51592C11.9586 8.5153 11.6999 8.40759 11.5093 8.21644C11.3186 8.02529 11.2116 7.76631 11.2117 7.49634Z" fill="#BCC7FF"/>
<path d="M7.05063 8.57246C6.76726 8.57323 6.4897 8.65291 6.24908 8.80259C6.00846 8.95227 5.8143 9.16601 5.68835 9.41986C5.8958 9.31592 6.12441 9.26117 6.35644 9.25987C6.55728 9.25987 6.75616 9.29943 6.94171 9.37629C7.12726 9.45315 7.29586 9.5658 7.43788 9.70781C7.57989 9.84983 7.69255 10.0184 7.7694 10.204C7.84626 10.3895 7.88582 10.5884 7.88582 10.7892C7.88432 11.0263 7.82708 11.2597 7.71871 11.4706C8.03008 11.3202 8.2811 11.0684 8.43062 10.7566C8.58013 10.4448 8.61927 10.0915 8.54161 9.75453C8.46395 9.41757 8.27411 9.117 8.0032 8.9021C7.7323 8.68721 7.39642 8.57073 7.05063 8.57178V8.57246Z" fill="#BCC7FF"/>
<path d="M13.3969 14.0735H0.703949C0.614051 14.0735 0.527836 14.0378 0.464269 13.9742C0.400702 13.9107 0.36499 13.8245 0.36499 13.7346V6.46933C0.36499 6.37943 0.400702 6.29322 0.464269 6.22965C0.527836 6.16608 0.614051 6.13037 0.703949 6.13037H13.3969C13.4868 6.13037 13.573 6.16608 13.6366 6.22965C13.7002 6.29322 13.7359 6.37943 13.7359 6.46933V13.7346C13.7359 13.8245 13.7002 13.9107 13.6366 13.9742C13.573 14.0378 13.4868 14.0735 13.3969 14.0735ZM1.04291 13.3956H13.058V6.80829H1.04291V13.3956Z" fill="#1C1C1B"/>
<path d="M11.2117 13.0463H2.89126C2.80136 13.0463 2.71515 13.0106 2.65158 12.947C2.58801 12.8834 2.5523 12.7972 2.5523 12.7073C2.55203 12.5269 2.48023 12.354 2.35263 12.2265C2.22504 12.0989 2.05207 12.0272 1.87167 12.027C1.78178 12.027 1.69556 11.9913 1.63199 11.9278C1.56843 11.8642 1.53271 11.778 1.53271 11.6881V8.51577C1.53271 8.42587 1.56843 8.33966 1.63199 8.27609C1.69556 8.21253 1.78178 8.17681 1.87167 8.17681C2.0521 8.17654 2.22507 8.10475 2.35265 7.97716C2.48024 7.84958 2.55203 7.67662 2.5523 7.49618C2.5523 7.40629 2.58801 7.32007 2.65158 7.2565C2.71515 7.19294 2.80136 7.15723 2.89126 7.15723H11.2117C11.3016 7.15723 11.3878 7.19294 11.4514 7.2565C11.5149 7.32007 11.5506 7.40629 11.5506 7.49618C11.5508 7.67618 11.6222 7.84878 11.7492 7.97631C11.8762 8.10384 12.0486 8.17592 12.2285 8.17681C12.3184 8.17681 12.4047 8.21253 12.4682 8.27609C12.5318 8.33966 12.5675 8.42587 12.5675 8.51577V11.6881C12.5675 11.778 12.5318 11.8642 12.4682 11.9278C12.4047 11.9913 12.3184 12.027 12.2285 12.027C12.0482 12.0272 11.8752 12.099 11.7477 12.2265C11.6202 12.354 11.5484 12.527 11.5483 12.7073C11.5483 12.7968 11.5129 12.8827 11.4498 12.9462C11.3868 13.0097 11.3012 13.0457 11.2117 13.0463ZM3.18887 12.3684H10.9171C10.9777 12.1337 11.0998 11.9194 11.2707 11.7475C11.4416 11.5756 11.6552 11.4524 11.8896 11.3905V8.81168C11.6546 8.75058 11.4402 8.62785 11.2686 8.45618C11.0969 8.28451 10.9742 8.07011 10.913 7.83514H3.18717C3.12613 8.07014 3.00343 8.28457 2.83174 8.45625C2.66006 8.62794 2.44563 8.75064 2.21063 8.81168V11.3905C2.44576 11.4517 2.66027 11.5746 2.83196 11.7466C3.00365 11.9185 3.12628 12.1332 3.18717 12.3684H3.18887Z" fill="#1C1C1B"/>
<path d="M7.05056 11.9701C6.681 11.9701 6.31971 11.8606 6.01241 11.6553C5.7051 11.45 5.46558 11.1582 5.32414 10.8168C5.18269 10.4754 5.14569 10.0997 5.21779 9.7372C5.2899 9.37474 5.46788 9.0418 5.72923 8.7805C5.99058 8.5192 6.32354 8.34128 6.68602 8.26924C7.0485 8.1972 7.4242 8.23428 7.7656 8.37578C8.107 8.51728 8.39877 8.75686 8.604 9.0642C8.80923 9.37155 8.9187 9.73285 8.91856 10.1024C8.91776 10.5976 8.72068 11.0722 8.37053 11.4223C8.02037 11.7724 7.54571 11.9694 7.05056 11.9701ZM7.05056 8.91166C6.81512 8.91159 6.58494 8.98134 6.38914 9.11209C6.19334 9.24284 6.04071 9.42871 5.95055 9.64621C5.86039 9.8637 5.83674 10.1031 5.88261 10.334C5.92848 10.5649 6.04179 10.7771 6.20823 10.9436C6.37467 11.1101 6.58675 11.2236 6.81765 11.2696C7.04856 11.3156 7.28792 11.2921 7.50547 11.202C7.72301 11.112 7.90897 10.9594 8.03984 10.7637C8.1707 10.568 8.24058 10.3379 8.24065 10.1024C8.24047 9.78678 8.11505 9.48411 7.89192 9.26086C7.6688 9.03761 7.3662 8.91201 7.05056 8.91166Z" fill="#1C1C1B"/>
<path d="M14.2009 12.1323C14.114 12.1323 14.0303 12.0989 13.9673 12.039C13.9043 11.979 13.8667 11.8972 13.8624 11.8103C13.858 11.7234 13.8872 11.6382 13.9439 11.5723C14.0006 11.5064 14.0805 11.4648 14.1671 11.4561L14.5582 11.4151L13.8701 4.86401L2.95804 6.00969C2.86859 6.01909 2.77907 5.99256 2.70918 5.93596C2.63929 5.87935 2.59475 5.7973 2.58535 5.70785C2.57596 5.6184 2.60248 5.52889 2.65909 5.45899C2.71569 5.3891 2.79775 5.34456 2.88719 5.33516L14.1352 4.15423C14.1795 4.14954 14.2243 4.15361 14.267 4.16624C14.3097 4.17886 14.3495 4.19978 14.3841 4.22779C14.4188 4.25581 14.4475 4.29038 14.4688 4.32952C14.4901 4.36866 14.5034 4.41161 14.508 4.45591L15.267 11.6815C15.2717 11.7258 15.2676 11.7706 15.255 11.8133C15.2423 11.856 15.2214 11.8958 15.1934 11.9304C15.1654 11.9651 15.1308 11.9938 15.0917 12.0151C15.0525 12.0363 15.0096 12.0497 14.9653 12.0543L14.2369 12.1309C14.2247 12.1316 14.2128 12.1323 14.2009 12.1323Z" fill="#1C1C1B"/>
<path d="M15.7425 10.1188C15.6582 10.1187 15.577 10.0872 15.5146 10.0305C15.4523 9.97371 15.4134 9.89576 15.4054 9.81183C15.3974 9.7279 15.421 9.64402 15.4716 9.57655C15.5221 9.50909 15.596 9.46289 15.6788 9.44696L15.8995 9.40459L14.6582 2.93523L4.03492 4.97305C3.99114 4.98144 3.94614 4.98113 3.90248 4.97213C3.85883 4.96313 3.81737 4.94561 3.78048 4.92059C3.70598 4.87006 3.65461 4.79199 3.63766 4.70358C3.62927 4.6598 3.62958 4.6148 3.63858 4.57114C3.64759 4.52749 3.6651 4.48603 3.69012 4.44914C3.71514 4.41225 3.74719 4.38065 3.78442 4.35615C3.82166 4.33164 3.86335 4.31471 3.90713 4.30632L14.8636 2.20478C14.9518 2.18789 15.0432 2.20671 15.1175 2.25711C15.1919 2.30751 15.2432 2.38536 15.2602 2.47357L16.6289 9.60899C16.6458 9.69726 16.6269 9.78863 16.5765 9.863C16.526 9.93737 16.4481 9.98865 16.3598 10.0056L15.8066 10.1117C15.7855 10.116 15.7641 10.1184 15.7425 10.1188Z" fill="#1C1C1B"/>
</g>
<defs>
<clipPath id="clip0_443_1515">
<rect width="16.27" height="16.27" fill="white" transform="translate(0.36499 0.00146484)"/>
</clipPath>
</defs>
</svg>
