<svg width="24" height="25" viewBox="0 0 24 25" fill="none" xmlns="http://www.w3.org/2000/svg">
<path fill-rule="evenodd" clip-rule="evenodd" d="M19.8257 11.9704C20.2317 12.5815 20.4646 13.2896 20.5 14.0206L20.4734 14.2053C20.504 15.2056 20.1701 16.1834 19.533 16.9594C18.7193 17.8374 17.6069 18.3858 16.41 18.4992C13.4617 18.8229 10.4863 18.8229 7.53799 18.4992C6.35854 18.3781 5.26557 17.8299 4.46827 16.9594C3.82062 16.1945 3.47675 15.2215 3.50122 14.2229V14.0998C3.55 13.3469 3.80121 12.6208 4.22873 11.9968L4.2997 11.9088C4.74432 11.4085 5.05006 10.802 5.1869 10.149V9.39232V8.33645C5.31271 8.01858 5.6376 7.82366 5.97989 7.86069C6.32218 7.89772 6.59705 8.15753 6.65079 8.49483V9.37473V10.3074C6.65424 10.3396 6.65424 10.372 6.65079 10.4042C6.46606 11.312 6.04382 12.1556 5.42645 12.8503C5.1887 13.2259 5.05412 13.6566 5.03608 14.0998V14.2933C5.01638 14.9166 5.22433 15.5259 5.62163 16.0091C6.17247 16.5734 6.90907 16.9231 7.69768 16.9946C10.552 17.3026 13.4315 17.3026 16.2858 16.9946C17.096 16.9209 17.8506 16.5545 18.4062 15.9651C18.784 15.4933 18.9819 14.9044 18.9651 14.3021V14.0998C18.9469 13.6552 18.8157 13.2223 18.5836 12.8415C17.9406 12.1546 17.4935 11.3104 17.2883 10.3954C17.2849 10.3632 17.2849 10.3308 17.2883 10.2986V9.35713V8.47723C17.031 5.81995 14.3606 4.17455 12.0361 4.17455C11.0479 4.1723 10.0759 4.4239 9.2148 4.90486C8.97637 5.04701 8.67884 5.0492 8.43831 4.91056C8.19779 4.77193 8.05241 4.51446 8.05891 4.23864C8.06541 3.96281 8.22276 3.71236 8.46955 3.58502C9.53654 2.9872 10.7397 2.66922 11.9651 2.66113C15.0348 2.66113 18.4772 4.82567 18.8675 8.30126V9.33953V10.1138C19.0008 10.768 19.307 11.3754 19.7548 11.8736C19.7813 11.9037 19.805 11.9361 19.8257 11.9704ZM12.2515 21.0919C12.7729 21.0143 13.2415 20.7335 13.5532 20.3118H13.5621C13.8316 19.9887 14.3142 19.9434 14.64 20.2106C14.9659 20.4779 15.0116 20.9565 14.7421 21.2797C14.0777 22.1413 13.0499 22.651 11.9563 22.6611C10.8658 22.6483 9.84176 22.1389 9.17931 21.2797C8.90982 20.9565 8.9555 20.4779 9.28134 20.2106C9.60718 19.9434 10.0898 19.9887 10.3593 20.3118C10.4776 20.4687 10.6181 20.608 10.7763 20.7254C11.1991 21.0376 11.7302 21.1695 12.2515 21.0919Z" fill="#BCC7FF"/>
</svg>
