<svg width="16" height="16" viewBox="0 0 16 16" fill="none" xmlns="http://www.w3.org/2000/svg">
<path d="M12.555 15.0957C12.0218 15.4755 8.60091 13.0683 7.94573 13.063C7.29056 13.0577 3.83115 15.4096 3.30422 15.0213C2.7773 14.633 4.01607 10.6449 3.81866 10.022C3.62125 9.39903 0.309076 6.84501 0.516552 6.22531C0.724075 5.6056 4.91057 5.54804 5.44371 5.16829C5.97686 4.78859 7.38926 0.858285 8.04449 0.863531C8.69962 0.868821 10.0482 4.82134 10.5751 5.20962C11.1021 5.59785 15.2871 5.72282 15.4846 6.34576C15.682 6.9687 12.329 9.46909 12.1215 10.0888C11.914 10.7085 13.0881 14.716 12.555 15.0957Z" fill="url(#paint0_linear_830_556)"/>
<defs>
<linearGradient id="paint0_linear_830_556" x1="0.507221" y1="7.99995" x2="15.493" y2="7.99995" gradientUnits="userSpaceOnUse">
<stop stop-color="#FCD635"/>
<stop offset="1" stop-color="#F7A928"/>
</linearGradient>
</defs>
</svg>
