<svg width="14" height="14" viewBox="0 0 14 14" fill="none" xmlns="http://www.w3.org/2000/svg">
<path d="M12.7861 5.90721C12.8329 5.58824 12.6122 5.29173 12.2933 5.24491L8.99666 4.76298L7.52352 1.76086C7.47047 1.66929 7.39435 1.59324 7.3027 1.5403C7.01335 1.37307 6.64318 1.47204 6.47591 1.76143L5.00334 4.76298L1.70671 5.24495C1.58067 5.26343 1.46417 5.32267 1.37491 5.41357C1.14908 5.6436 1.15253 6.01317 1.38257 6.23901L3.77002 8.57975L3.20662 11.8838C3.20128 11.9154 3.19854 11.9474 3.19847 11.9795C3.19758 12.3023 3.45856 12.5648 3.78141 12.5657C3.87658 12.5655 3.97029 12.5421 4.05428 12.4973L7 10.9399L9.94515 12.4967C10.059 12.5572 10.1896 12.5782 10.3166 12.5566C10.634 12.5024 10.8475 12.2012 10.7934 11.8838L10.23 8.57975L12.618 6.2384C12.7086 6.14925 12.7676 6.03297 12.7861 5.90721ZM9.71273 8.26981C9.64444 8.33682 9.61318 8.43295 9.62899 8.5273L10.218 11.9812L7.13615 10.3519C7.05081 10.3075 6.94919 10.3075 6.86385 10.3519L3.78198 11.9817L4.37098 8.52734C4.38682 8.43299 4.35556 8.33686 4.28724 8.26985L1.79098 5.82258L5.23971 5.31843C5.33495 5.30419 5.41712 5.24416 5.45964 5.15779L7 2.01842L8.54033 5.15775C8.58284 5.24413 8.66505 5.30416 8.76025 5.3184L12.2096 5.82198L9.71273 8.26981Z" fill="#EF9834"/>
</svg>
