<svg width="22" height="20" viewBox="0 0 22 20" fill="none" xmlns="http://www.w3.org/2000/svg">
<path fill-rule="evenodd" clip-rule="evenodd" d="M19.2543 0.0772939C20.0078 -0.121981 20.8241 0.0702488 21.3774 0.582527C21.9307 1.0938 22.1353 1.83957 21.9098 2.52999L20.5359 6.73188C20.405 7.13144 19.9473 7.35789 19.5095 7.23913C19.0728 7.11936 18.8242 6.69867 18.9551 6.30012L20.329 2.09722C20.406 1.86171 20.2685 1.7027 20.2058 1.64533C20.1431 1.58696 19.9671 1.46014 19.713 1.52758L2.01231 6.20652C1.7307 6.281 1.6691 6.49537 1.6559 6.58394C1.6438 6.6725 1.6394 6.89392 1.89021 7.03482L5.61493 9.11816C6.00325 9.33555 6.12645 9.80052 5.88774 10.1568C5.73264 10.3883 5.46203 10.5171 5.18372 10.5171C5.03741 10.5171 4.88891 10.4819 4.7547 10.4064L1.02998 8.32206C0.291849 7.90942 -0.0953641 7.16667 0.02014 6.38265C0.135644 5.59762 0.724164 4.97464 1.55469 4.75523L19.2543 0.0772939ZM17.6311 10.3492C17.7631 9.94868 18.2218 9.72122 18.6585 9.84199C19.0952 9.96176 19.3439 10.3825 19.2129 10.782L16.6587 18.596C16.4112 19.3519 15.7269 19.8833 14.8722 19.9829C14.7765 19.995 14.6819 20 14.5873 20C13.8415 20 13.1594 19.6518 12.7623 19.054L8.25217 12.2645C8.05526 11.9666 8.10476 11.5841 8.37427 11.3386L14.7776 5.48008C15.0999 5.18519 15.6213 5.18519 15.9436 5.48008C16.2659 5.77496 16.2659 6.25302 15.9436 6.54791L9.99903 11.9877L14.1726 18.2699C14.3244 18.4984 14.5631 18.4964 14.6621 18.4863C14.7589 18.4742 14.9932 18.4199 15.0768 18.1643L17.6311 10.3492Z" fill="white"/>
</svg>
