<svg width="18" height="20" viewBox="0 0 18 20" fill="none" xmlns="http://www.w3.org/2000/svg">
<path fill-rule="evenodd" clip-rule="evenodd" d="M5.90203 4.87447C5.14776 5.33075 4.22256 5.3242 3.47405 4.85727L3.44108 4.82213C3.10429 4.59899 3.00098 4.12709 3.21034 3.76812C3.4197 3.40914 3.86245 3.29903 4.19925 3.52218C4.34958 3.61568 4.5197 3.66705 4.6937 3.6715C4.96041 3.68339 5.2206 3.58174 5.41693 3.38897C5.61326 3.19619 5.72959 2.92811 5.7403 2.64383C5.73523 1.21545 6.79885 0.0428416 8.13841 0H9.26741C10.6328 0 11.7397 1.17975 11.7397 2.63505C11.7375 2.82028 11.7831 3.0026 11.8715 3.16206C12.0028 3.40892 12.2212 3.5896 12.4782 3.66384C12.7351 3.73808 13.0093 3.69972 13.2395 3.55731C14.3997 2.88418 15.8513 3.30193 16.5359 4.50593C16.7251 4.87335 16.6088 5.33444 16.2722 5.55116C15.9302 5.75928 15.4948 5.6384 15.2915 5.27888C15.0122 4.77187 14.4018 4.59942 13.9235 4.8924C13.1668 5.33407 12.2487 5.32329 11.5012 4.86395C10.7538 4.40461 10.2851 3.56317 10.2646 2.64383C10.2735 2.35592 10.1724 2.07648 9.98442 1.8695C9.79644 1.66252 9.53769 1.54574 9.26741 1.54589H8.13841C7.86742 1.54581 7.60788 1.66232 7.4186 1.86901C7.22933 2.07571 7.12635 2.35509 7.13302 2.64383C7.12538 3.56818 6.6563 4.41819 5.90203 4.87447ZM7.13298 17.3912C7.13751 17.9796 7.58632 18.4541 8.13838 18.454L8.13014 18.4716C8.38628 18.4716 8.62297 18.6173 8.75104 18.8537C8.87911 19.0901 8.87911 19.3814 8.75104 19.6179C8.62297 19.8543 8.38628 19.9999 8.13014 19.9999C6.76474 19.9999 5.65786 18.8202 5.65786 17.3649C5.66008 17.1797 5.61447 16.9973 5.52601 16.8379C5.2495 16.3277 4.63842 16.1511 4.15801 16.4426C2.9979 17.1158 1.54625 16.698 0.861646 15.494L0.301264 14.4488C-0.330288 13.2123 0.0616573 11.6651 1.19128 10.9354C1.341 10.8415 1.4658 10.7085 1.55388 10.5489C1.71916 10.3034 1.77855 9.99446 1.71722 9.69943C1.65588 9.4044 1.47961 9.15114 1.23249 9.00301C0.102862 8.27334 -0.289083 6.72611 0.342468 5.48961C0.448142 5.32029 0.612779 5.20285 0.799931 5.16329C0.987083 5.12372 1.18131 5.1653 1.33962 5.27881C1.65234 5.50546 1.74301 5.95388 1.54564 6.2977C1.27289 6.80709 1.43885 7.4557 1.91648 7.74697C2.27534 7.98135 2.57072 8.31131 2.77354 8.70437C3.40509 9.94087 3.01315 11.4881 1.88352 12.2178C1.40589 12.509 1.23992 13.1576 1.51268 13.667L2.0813 14.7123C2.21068 14.9614 2.4298 15.1434 2.688 15.2163C2.9462 15.2893 3.22115 15.2468 3.44929 15.0988C3.81716 14.8713 4.23545 14.7531 4.66071 14.7562C6.02611 14.7562 7.13298 15.9359 7.13298 17.3912ZM16.2062 10.9267C15.976 10.7853 15.8083 10.5519 15.7402 10.2781C15.6721 10.0044 15.7093 9.713 15.8436 9.46864C15.9317 9.30906 16.0565 9.17605 16.2062 9.08217C16.5444 8.86561 16.6549 8.3985 16.4535 8.03693C16.2533 7.68002 15.8259 7.55265 15.481 7.74708C14.3514 8.47675 13.9595 10.024 14.591 11.2605C14.7916 11.6924 15.1031 12.0549 15.4893 12.3057C15.7189 12.4454 15.8866 12.6773 15.9547 12.9496C16.0228 13.2219 15.9858 13.512 15.8519 13.755L15.2915 14.8002C15.1566 15.0448 14.938 15.2243 14.6817 15.3009C14.4249 15.3739 14.1513 15.3327 13.9235 15.1867C13.1655 14.7444 12.2457 14.756 11.4978 15.2175C10.7498 15.6789 10.2822 16.5231 10.2645 17.444C10.304 17.8368 10.615 18.1347 10.9856 18.1347C11.3563 18.1347 11.6672 17.8368 11.7067 17.444C11.6999 17.0603 11.8893 16.7029 12.2013 16.5111C12.5132 16.3193 12.8983 16.3234 13.2065 16.5218C14.3667 17.1949 15.8183 16.7772 16.5029 15.5732L17.0633 14.5279C17.7553 13.2806 17.3724 11.6717 16.2062 10.9267ZM8.69877 6.70167C7.44476 6.70168 6.31438 7.50728 5.83527 8.74245C5.35615 9.97763 5.62277 11.3988 6.51067 12.3427C7.39856 13.2865 8.73267 13.5669 9.89027 13.0529C11.0479 12.539 11.8007 11.332 11.7974 9.99548C11.7974 9.12038 11.4706 8.28126 10.8893 7.66329C10.308 7.04533 9.5198 6.69934 8.69877 6.70167ZM8.69875 11.7609C7.78848 11.7609 7.05056 10.9744 7.05056 10.0042C7.05056 9.03405 7.78848 8.24755 8.69875 8.24755C9.60901 8.24755 10.3469 9.03405 10.3469 10.0042C10.3469 10.9744 9.60901 11.7609 8.69875 11.7609Z" fill="#BCC7FF"/>
</svg>
