<svg width="22" height="24" viewBox="0 0 22 24" fill="none" xmlns="http://www.w3.org/2000/svg">
<g id="Iconly/Broken/Shield Done">
<g id="Shield Done">
<path id="Shield Done_2" fill-rule="evenodd" clip-rule="evenodd" d="M11.5641 2.1005L17.6531 4.36744C18.3342 4.62143 18.7917 5.30542 18.7917 6.0714V12.7122C18.7917 14.7252 18.1059 16.6741 16.8617 18.1951C16.2919 18.8921 15.5609 19.4911 14.627 20.0271L11.3358 21.912C11.233 21.97 11.1198 22 11.0057 22C10.8925 22 10.7793 21.97 10.6764 21.912L7.37866 20.026C6.44291 19.4891 5.71091 18.8901 5.1421 18.1961C3.89599 16.6731 3.20833 14.7232 3.20833 12.7082C3.20833 12.3022 3.51962 11.9723 3.9026 11.9723C4.28558 11.9723 4.59687 12.3022 4.59687 12.7082C4.59687 14.3702 5.16285 15.9762 6.1901 17.2321C6.6476 17.7911 7.25226 18.2811 8.03803 18.7311L11.0057 20.428L13.9667 18.7321C14.7506 18.2831 15.3552 17.7931 15.8137 17.2321C16.839 15.9772 17.4041 14.3732 17.4041 12.7122V6.0714C17.4041 5.9294 17.3192 5.8034 17.1937 5.75641L11.1047 3.48946C11.0377 3.46446 10.9632 3.46446 10.8953 3.48946L4.80722 5.75641C4.68176 5.8034 4.59687 5.9294 4.59687 6.0714V7.97135C4.59687 8.37834 4.28558 8.70833 3.9026 8.70833C3.51962 8.70833 3.20833 8.37834 3.20833 7.97135V6.0714C3.20833 5.30542 3.66677 4.62143 4.34784 4.36744L10.4359 2.1005C10.8 1.9665 11.2009 1.9665 11.5641 2.1005ZM10.3457 14.3175C10.1608 14.3175 9.98538 14.2395 9.8552 14.1015L8.10444 12.2455C7.83371 11.9576 7.83371 11.4936 8.10444 11.2056C8.37611 10.9176 8.81474 10.9176 9.08547 11.2056L10.3457 12.5405L13.4605 9.23962C13.7312 8.95263 14.1708 8.95263 14.4415 9.23962C14.7123 9.52661 14.7123 9.9926 14.4415 10.2796L10.8362 14.1015C10.7061 14.2395 10.5297 14.3175 10.3457 14.3175Z" fill="#BCC7FF"/>
</g>
</g>
</svg>
