<svg width="15" height="17" viewBox="0 0 15 17" fill="none" xmlns="http://www.w3.org/2000/svg">
<g clip-path="url(#clip0_443_1510)">
<path d="M12.0478 15.2322C11.5146 15.6119 8.09371 13.2047 7.43853 13.1994C6.78335 13.1942 3.32395 15.546 2.79702 15.1578C2.2701 14.7695 3.50887 10.7814 3.31146 10.1584C3.11404 9.53551 -0.198126 6.98148 0.00935014 6.36178C0.216873 5.74208 4.40337 5.68452 4.93651 5.30477C5.46966 4.92507 6.88206 0.99476 7.53729 1.00001C8.19242 1.0053 9.54102 4.95781 10.0679 5.34609C10.5949 5.73432 14.7799 5.85929 14.9774 6.48224C15.1748 7.10518 11.8218 9.60556 11.6143 10.2253C11.4068 10.845 12.5809 14.8525 12.0478 15.2322Z" fill="url(#paint0_linear_443_1510)"/>
</g>
<defs>
<linearGradient id="paint0_linear_443_1510" x1="1.91818e-05" y1="8.13642" x2="14.9858" y2="8.13642" gradientUnits="userSpaceOnUse">
<stop stop-color="#FCD635"/>
<stop offset="1" stop-color="#F7A928"/>
</linearGradient>
<clipPath id="clip0_443_1510">
<rect width="14.9858" height="16.2728" fill="white"/>
</clipPath>
</defs>
</svg>
