<svg width="8" height="10" viewBox="0 0 8 10" fill="none" xmlns="http://www.w3.org/2000/svg">
<path fill-rule="evenodd" clip-rule="evenodd" d="M7.4621 7.41646C7.21642 7.07826 6.81747 6.58821 6.47592 6.54178C6.26812 6.51355 6.02932 6.70178 5.79397 6.87935C5.74805 6.90445 5.3933 7.13536 5.35025 7.14916C5.12293 7.22006 4.63788 7.24077 4.34455 6.94837C4.06212 6.66602 3.61553 6.14335 3.25504 5.66459C2.91062 5.17141 2.54955 4.57846 2.36471 4.21454C2.17184 3.83743 2.31076 3.3386 2.43015 3.11899C2.45197 3.07946 2.71602 2.78268 2.77515 2.71366L2.78376 2.72495C3.00246 2.52416 3.2315 2.32024 3.25733 2.09937C3.29981 1.73168 2.95597 1.19646 2.71028 0.857634C2.4646 0.518178 2.08401 -0.0760249 1.56566 0.00805452C1.37049 0.0394275 1.2023 0.114095 1.03641 0.22139L1.03182 0.215743C1.02837 0.218253 1.0123 0.232057 1.00426 0.238959C0.999096 0.242097 0.994504 0.243979 0.989912 0.247116L0.991634 0.249626C0.896345 0.329941 0.624254 0.552061 0.593257 0.582179C0.256875 0.909085 -0.24942 1.67898 0.142069 3.06378C0.432528 4.09281 1.05191 5.3013 1.89573 6.52358L1.89114 6.52798C1.93247 6.58696 1.97495 6.64029 2.018 6.69739C2.05818 6.75574 2.09779 6.81347 2.13912 6.8712L2.14486 6.8668C3.04035 8.0458 3.97946 8.98824 4.83649 9.54417C5.99029 10.2921 6.81058 9.95516 7.18944 9.68723C7.22503 9.66151 7.49597 9.43123 7.58782 9.35531L7.59011 9.35782C7.59356 9.35405 7.59585 9.34903 7.60045 9.34527C7.60733 9.33962 7.62226 9.32707 7.62513 9.32456L7.62168 9.31954C7.7606 9.17272 7.87196 9.01585 7.94888 8.8182C8.15037 8.29804 7.70779 7.75591 7.4621 7.41646Z" fill="white"/>
</svg>
