<svg width="13" height="12" viewBox="0 0 13 12" fill="none" xmlns="http://www.w3.org/2000/svg">
<path d="M12.057 4.24055L8.32183 3.6977L6.65211 0.312647C6.6065 0.219966 6.53147 0.144939 6.43879 0.0993338C6.20636 -0.0154139 5.9239 0.0802092 5.80768 0.312647L4.13796 3.6977L0.402771 4.24055C0.299792 4.25526 0.20564 4.30381 0.133555 4.37736C0.0464082 4.46693 -0.00161369 4.58744 4.14061e-05 4.7124C0.0016965 4.83736 0.0528932 4.95655 0.142382 5.04378L2.84484 7.67857L2.20637 11.399C2.1914 11.4856 2.20097 11.5746 2.23401 11.656C2.26706 11.7374 2.32224 11.8079 2.3933 11.8595C2.46437 11.9111 2.54847 11.9417 2.63608 11.948C2.72369 11.9542 2.8113 11.9358 2.88897 11.8948L6.22989 10.1383L9.57082 11.8948C9.66203 11.9434 9.76795 11.9595 9.86946 11.9419C10.1254 11.8977 10.2976 11.655 10.2534 11.399L9.61495 7.67857L12.3174 5.04378C12.391 4.9717 12.4395 4.87755 12.4542 4.77457C12.4939 4.51712 12.3145 4.2788 12.057 4.24055V4.24055Z" fill="#EEBD5E"/>
</svg>
