<svg width="22" height="24" viewBox="0 0 22 24" fill="none" xmlns="http://www.w3.org/2000/svg">
<g id="Iconly/Broken/Wallet">
<g id="Wallet">
<path id="Wallet_2" fill-rule="evenodd" clip-rule="evenodd" d="M7.13614 2.5H14.863C17.7874 2.5 20.1667 5.15478 20.1667 8.41891V15.5811C20.1667 18.8452 17.7874 21.5 14.863 21.5C14.5257 21.5 14.2519 21.1944 14.2519 20.8179C14.2519 20.4414 14.5257 20.1358 14.863 20.1358C17.1136 20.1358 18.9444 18.0931 18.9444 15.5811V9.86499H15.9345C14.9461 9.8659 14.1403 10.7645 14.1395 11.8686C14.1403 12.9727 14.9461 13.8713 15.9345 13.8722H17.1853C17.5226 13.8722 17.7964 14.1778 17.7964 14.5543C17.7964 14.9308 17.5226 15.2364 17.1853 15.2364H15.9345C14.2715 15.2355 12.9181 13.7248 12.9173 11.8686C12.9181 10.0123 14.2715 8.50168 15.9345 8.50077H18.9444V8.41891C18.9444 5.90692 17.1136 3.86422 14.863 3.86422H7.13614C5.32237 3.86422 3.80029 5.19934 3.26985 7.02831H11.3251C11.6624 7.02831 11.9362 7.3339 11.9362 7.71043C11.9362 8.08786 11.6624 8.39254 11.3251 8.39254H3.05799C3.05799 8.39709 3.05738 8.40141 3.05677 8.40573C3.05616 8.41004 3.05555 8.41436 3.05555 8.41891V15.5811C3.05555 18.0931 4.88562 20.1358 7.13614 20.1358H11.0236C11.361 20.1358 11.6347 20.4414 11.6347 20.8179C11.6347 21.1944 11.361 21.5 11.0236 21.5H7.13614C4.21177 21.5 1.83333 18.8452 1.83333 15.5811V8.41891C1.83333 5.15478 4.21177 2.5 7.13614 2.5ZM15.4559 11.8071C15.4559 11.4306 15.7297 11.125 16.067 11.125H16.3449C16.6822 11.125 16.956 11.4306 16.956 11.8071C16.956 12.1836 16.6822 12.4892 16.3449 12.4892H16.067C15.7297 12.4892 15.4559 12.1836 15.4559 11.8071Z" fill="#BCC7FF"/>
</g>
</g>
</svg>
