<svg width="16" height="16" viewBox="0 0 16 16" fill="none" xmlns="http://www.w3.org/2000/svg">
<g clip-path="url(#clip0_693_2480)">
<path d="M13.3333 4.00016H10.6666V2.66683C10.6666 1.92683 10.0733 1.3335 9.33325 1.3335H6.66658C5.92659 1.3335 5.33325 1.92683 5.33325 2.66683V4.00016H2.66659C1.92659 4.00016 1.33992 4.5935 1.33992 5.3335L1.33325 12.6668C1.33325 13.4068 1.92659 14.0002 2.66659 14.0002H13.3333C14.0733 14.0002 14.6666 13.4068 14.6666 12.6668V5.3335C14.6666 4.5935 14.0733 4.00016 13.3333 4.00016ZM6.66658 2.66683H9.33325V4.00016H6.66658V2.66683ZM13.3333 12.6668H2.66659V5.3335H13.3333V12.6668Z" fill="black"/>
</g>
<defs>
<clipPath id="clip0_693_2480">
<rect width="16" height="16" fill="white"/>
</clipPath>
</defs>
</svg>
